<svg width="55" height="55" viewBox="0 0 55 55" fill="none" xmlns="http://www.w3.org/2000/svg">
<path d="M17.5366 43.8881C17.2644 43.5724 16.8946 43.3173 16.4281 43.1229C15.9615 42.9285 15.3565 42.8308 14.6131 42.8308H13.7056V50.0652H15.2484C16.3029 50.0652 17.0634 49.7286 17.53 49.0543C17.9965 48.3801 18.2298 47.4034 18.2298 46.1242C18.2298 45.7268 18.1824 45.3333 18.0875 44.9445C17.9927 44.5557 17.8088 44.2039 17.5366 43.8881Z" fill="#E7000B"/>
<path d="M48.8362 36.9828V13.255C48.8362 12.5286 48.749 11.9909 48.3147 11.5557L37.2796 0.521552C36.9486 0.190603 36.4897 0 36.0203 0H8.49942C7.37477 0 6.16382 0.868621 6.16382 2.77466V36.9828H48.8362ZM35.5604 3.2156C35.5604 2.78129 36.0848 2.56414 36.392 2.87138L45.9649 12.4442C46.2721 12.7515 46.0549 13.2759 45.6206 13.2759H35.5604V3.2156ZM10.9052 12.3276H27.0259V23.7069H28.9224V19.9138H32.7155V14.2241H34.6121V19.9138H38.4052V23.7069H44.0949V25.6034H38.4052V29.3966H34.6121V35.0862H32.7155V29.3966H28.9224V25.6034H27.0259V28.5099H10.9052V12.3276Z" fill="#E7000B"/>
<path d="M6.16382 38.8794V53.1035C6.16382 54.0603 7.32072 55.0001 8.49942 55.0001H46.5006C47.6793 55.0001 48.8362 54.0603 48.8362 53.1035V38.8794H6.16382ZM19.6113 48.1801C19.4425 48.7377 19.2292 49.2042 18.9693 49.5807C18.7095 49.9572 18.4184 50.253 18.0941 50.4692C17.7698 50.6854 17.4568 50.8466 17.1543 50.9557C16.8518 51.0638 16.5749 51.133 16.3246 51.1634C16.0733 51.1918 15.8874 51.207 15.767 51.207H12.1503V41.6522H15.0283C15.8324 41.6522 16.5389 41.7802 17.1477 42.0343C17.7565 42.2884 18.2629 42.6289 18.6649 43.0518C19.067 43.4747 19.3667 43.9574 19.5658 44.497C19.764 45.0365 19.8636 45.5922 19.8636 46.1631C19.8636 46.9502 19.7792 47.6225 19.6113 48.1801ZM31.5577 51.2591H29.535L27.9666 44.0503L26.2938 51.2591H24.2588L21.8341 41.6522H23.5969L25.282 49.8974L27.097 41.6522H28.8599L30.5449 49.8974L32.3732 41.6522H34.138L31.5577 51.2591ZM43.213 49.9752C43.0138 50.2265 42.7919 50.4303 42.5454 50.5906C42.2988 50.7509 42.0399 50.8827 41.7678 50.986C41.4956 51.0894 41.2149 51.1634 40.9248 51.207C40.6346 51.2506 40.3482 51.2715 40.0628 51.2715C39.4919 51.2715 38.9675 51.1681 38.4877 50.9604C38.0079 50.7528 37.5887 50.4465 37.2303 50.0397C36.8718 49.6328 36.5902 49.1236 36.3873 48.5101C36.1843 47.8965 36.0829 47.1872 36.0829 46.3841C36.0829 45.5809 36.1843 44.8734 36.3873 44.2647C36.5902 43.6549 36.8709 43.1476 37.2303 42.7417C37.5887 42.3349 38.0098 42.0267 38.4943 41.8143C38.9789 41.6019 39.5014 41.4966 40.0628 41.4966C40.5815 41.4966 41.0661 41.5829 41.5146 41.7555C41.9631 41.9281 42.3652 42.1879 42.7199 42.5331L41.6436 43.4928C41.4359 43.2415 41.1979 43.0603 40.9305 42.9484C40.663 42.8365 40.3861 42.7797 40.1007 42.7797C39.7811 42.7797 39.4767 42.8394 39.1866 42.9608C38.8964 43.0822 38.6375 43.287 38.409 43.5762C38.1805 43.8654 38.0003 44.2391 37.8713 44.698C37.7414 45.156 37.6722 45.7174 37.6636 46.3831C37.6722 47.0317 37.7395 47.5931 37.8647 48.0682C37.9899 48.5433 38.1624 48.9321 38.3834 49.2346C38.6043 49.5371 38.8547 49.7618 39.1354 49.9088C39.4161 50.0558 39.7119 50.1288 40.0239 50.1288C40.1197 50.1288 40.2458 50.1222 40.4061 50.1089C40.5663 50.0956 40.7256 50.0747 40.8859 50.0444C41.0461 50.014 41.1988 49.9733 41.3458 49.9211C41.4928 49.869 41.6009 49.7959 41.6701 49.7011V47.3418H40.0495V46.2788H43.213V49.9752Z" fill="#E7000B"/>
</svg>
