<svg width="42" height="43" viewBox="0 0 42 43" fill="none" xmlns="http://www.w3.org/2000/svg">
<path d="M24.6654 7.18481L4.57383 27.2763C3.91547 27.9348 3.42927 28.7451 3.15817 29.6358L0.0819625 39.7433C-0.121341 40.4114 0.0600792 41.1372 0.553868 41.6308C1.04766 42.1247 1.77339 42.3062 2.44144 42.1028L12.5489 39.0265C13.4397 38.7555 14.25 38.2694 14.9084 37.6109L35 17.5195L24.6654 7.18481Z" fill="#E7000B"/>
<path opacity="0.4" d="M37.2218 15.1848L40.3566 12.05C42.5478 9.85886 42.5478 6.30639 40.3566 4.11529L38.0697 1.82814C35.8785 -0.36296 32.326 -0.36296 30.1348 1.82814L27 4.9629L37.2218 15.1848Z" fill="#E7000B"/>
</svg>
