<svg width="56" height="56" viewBox="0 0 56 56" fill="none" xmlns="http://www.w3.org/2000/svg">
<g clip-path="url(#clip0_86_502)">
<path d="M55.9431 21.6725C55.8895 22.0823 55.4171 22.3205 53.1407 22.3037C42.093 22.2079 40.7082 23.8751 40.7082 23.8751C40.7082 23.8751 39.7763 24.4144 40.4154 25.6485C41.0981 26.9648 49.3845 36.6515 51.1797 39.9838C52.3457 42.1463 53.9817 45.8915 47.4801 48.1094C41.118 50.3254 29.1851 48.1302 29.1063 48.1094C26.2145 47.3825 26.2845 46.8888 26.3167 46.6754C26.3737 46.2666 26.8377 46.0463 29.1128 46.0472C39.5928 46.0562 44.6589 45.3158 45.885 44.5502C46.6362 44.0853 46.7623 43.3718 46.6929 42.7455C46.5405 41.3791 43.295 37.3967 40.613 34.2608C37.8596 31.0345 31.9996 25.4058 35.9503 21.9901C40.6889 17.8936 51.1307 19.6948 53.173 20.1343C55.3383 20.5976 55.9884 21.3341 55.9431 21.6725ZM21.7051 3.87661C26.3183 3.8706 29.9047 4.17083 32.3599 4.61096C37.3545 5.51254 36.1785 8.03319 34.7591 10.4457C31.3145 16.3191 22.0119 22.9268 21.4715 23.3C20.7624 23.7882 21.1504 24.0729 21.7707 23.8428C29.3137 21.0373 36.9145 16.1985 39.9843 10.3207C42.5879 5.33502 40.7216 2.97011 36.7526 1.85569C29.6661 -0.137995 22.319 1.68846 21.7007 1.87057C20.8194 2.12902 19.0436 2.61782 19.1933 3.26586C19.2897 3.68061 19.6424 3.87815 21.7051 3.87661ZM26.2051 27.6774C18.8524 25.5036 10.837 27.3936 9.61352 27.7171C7.76268 28.2083 6.67855 28.703 6.75446 29.283C6.81145 29.7116 7.28493 30.0064 9.55938 29.9489C14.9812 29.8179 19.4734 30.0019 22.3129 30.7963C25.8293 31.7787 26.2625 33.5899 24.521 37.1475C23.7157 38.7919 22.5254 40.4908 20.7218 42.298C17.1219 45.9102 12.6219 48.2602 10.0869 49.5433C7.62235 50.7947 6.72077 50.1298 6.99421 48.8953C7.33163 47.3848 14.324 35.2849 14.324 35.2849C14.8504 34.366 14.9431 33.5036 14.324 33.2451C13.7941 33.0194 12.8329 33.7641 11.8346 34.9192C7.75382 39.6594 0.225648 54.0811 0.0856481 54.5544C-0.0512894 55.0075 0.302429 55.065 0.437398 55.0679C3.62393 55.0431 23.1891 49.2565 29.5023 37.4294C32.8267 31.2018 31.1441 29.1406 26.2051 27.6774Z" fill="#E7000B"/>
</g>
<defs>
<clipPath id="clip0_86_502">
<rect width="56" height="56" fill="white"/>
</clipPath>
</defs>
</svg>
