<?xml version="1.0" encoding="UTF-8"?>
<svg id="Capa_2" data-name="Capa 2" xmlns="http://www.w3.org/2000/svg" xmlns:xlink="http://www.w3.org/1999/xlink" viewBox="0 0 449.55 81.05">
  <defs>
    <style>
      .cls-1, .cls-2 {
        fill: none;
      }

      .cls-3 {
        fill: #1d1e1b;
      }

      .cls-4 {
        fill: url(#Degradado_sin_nombre_27-2);
      }

      .cls-5 {
        fill: url(#Degradado_sin_nombre_15-2);
      }

      .cls-6 {
        fill: url(#Degradado_sin_nombre_25-3);
      }

      .cls-7 {
        fill: url(#Degradado_sin_nombre_25-2);
      }

      .cls-8 {
        clip-path: url(#clippath-1);
      }

      .cls-9 {
        clip-path: url(#clippath-3);
      }

      .cls-10 {
        clip-path: url(#clippath-4);
      }

      .cls-11 {
        clip-path: url(#clippath-2);
      }

      .cls-12 {
        clip-path: url(#clippath-6);
      }

      .cls-13 {
        clip-path: url(#clippath-5);
      }

      .cls-14 {
        fill: url(#Degradado_sin_nombre_15);
      }

      .cls-15 {
        fill: url(#Degradado_sin_nombre_27);
      }

      .cls-16 {
        fill: url(#Degradado_sin_nombre_25);
      }

      .cls-17 {
        fill: url(#Degradado_sin_nombre_22);
      }

      .cls-18 {
        clip-path: url(#clippath);
      }

      .cls-2 {
        stroke: #999;
        stroke-miterlimit: 10;
        stroke-width: .81px;
      }

      .cls-19 {
        fill: #f5333f;
      }
    </style>
    <clipPath id="clippath">
      <path class="cls-1" d="M.41,57.32v17.39c0,3.23,2.63,5.86,5.86,5.86s5.86-2.63,5.86-5.86v-17.39H.41ZM117.03,2.18l-24.72,20.96L67.59,2.17c-1.06-.9-2.4-1.39-3.79-1.39-.86,0-1.68.18-2.46.54-2.06.96-3.4,3.04-3.4,5.32v31.6h11.72v-18.94l18.86,15.99c1.06.9,2.4,1.39,3.79,1.39s2.73-.49,3.79-1.39l18.86-15.99v18.94h11.72V6.65c0-2.27-1.33-4.36-3.4-5.32-.78-.36-1.61-.54-2.46-.54-1.39,0-2.74.5-3.79,1.39M137.86.78c-3.23,0-5.86,2.63-5.86,5.86s2.63,5.86,5.86,5.86h34.22c.53,0,.97.43.97.96v27.66c0,.44-.36.8-.8.8h-57.54v32.79c0,3.23,2.63,5.86,5.86,5.86s5.86-2.63,5.86-5.86v-21.07h52c3.5,0,6.34-2.84,6.34-6.34V7.45c0-3.68-2.99-6.67-6.67-6.67h-40.24ZM.41,6.36v47.29h57.53v21.07c0,3.23,2.63,5.86,5.86,5.86s5.86-2.63,5.86-5.86v-32.79H12.13V6.36C12.13,3.13,9.5.5,6.27.5S.41,3.13.41,6.36"/>
    </clipPath>
    <linearGradient id="Degradado_sin_nombre_22" data-name="Degradado sin nombre 22" x1="2326.11" y1="1191.38" x2="2327.11" y2="1191.38" gradientTransform="translate(-96584.36 -188757.01) rotate(90) scale(81.15 -81.15)" gradientUnits="userSpaceOnUse">
      <stop offset="0" stop-color="#dadada"/>
      <stop offset="1" stop-color="#716f6f"/>
      <stop offset="1" stop-color="#716f6f"/>
    </linearGradient>
    <clipPath id="clippath-1">
      <path class="cls-1" d="M1.13,58.05v16.66c0,2.83,2.3,5.13,5.13,5.13s5.13-2.3,5.13-5.13v-16.66H1.13Z"/>
    </clipPath>
    <linearGradient id="Degradado_sin_nombre_25" data-name="Degradado sin nombre 25" x1="2352.18" y1="1255.93" x2="2353.18" y2="1255.93" gradientTransform="translate(101950.56 191004.2) rotate(-90) scale(81.17 -81.17)" gradientUnits="userSpaceOnUse">
      <stop offset="0" stop-color="#9d9d9c"/>
      <stop offset=".27" stop-color="#3c3c3b"/>
      <stop offset=".44" stop-color="#1d1e1b"/>
      <stop offset="1" stop-color="#1d1e1b"/>
    </linearGradient>
    <clipPath id="clippath-2">
      <path class="cls-1" d="M1.13,6.36v46.56h57.53v21.79c0,2.83,2.3,5.13,5.13,5.13s5.13-2.3,5.13-5.13v-32.06H11.4V6.36c0-2.84-2.3-5.13-5.13-5.13S1.13,3.52,1.13,6.36"/>
    </clipPath>
    <linearGradient id="Degradado_sin_nombre_25-2" data-name="Degradado sin nombre 25" x1="2352.18" y1="1255.93" x2="2353.18" y2="1255.93" gradientTransform="translate(101979.24 191004.04) rotate(-90) scale(81.17 -81.17)" xlink:href="#Degradado_sin_nombre_25"/>
    <clipPath id="clippath-3">
      <path class="cls-1" d="M137.86,1.51c-2.84,0-5.14,2.3-5.14,5.13s2.3,5.14,5.14,5.14h34.22c.93,0,1.69.76,1.69,1.69v27.66c0,.84-.68,1.52-1.53,1.52h-56.82v32.06c0,2.83,2.3,5.13,5.13,5.13s5.13-2.3,5.13-5.13v-21.79h52.73c3.1,0,5.61-2.51,5.61-5.61V7.45c0-3.28-2.66-5.94-5.94-5.94h-40.24Z"/>
    </clipPath>
    <linearGradient id="Degradado_sin_nombre_25-3" data-name="Degradado sin nombre 25" x1="2352.18" y1="1255.93" x2="2353.18" y2="1255.93" gradientTransform="translate(102093.95 191003.4) rotate(-90) scale(81.17 -81.17)" xlink:href="#Degradado_sin_nombre_25"/>
    <clipPath id="clippath-4">
      <path class="cls-1" d="M1.13,6.36v33.13c3.22-1.23,6.65-2.39,10.27-3.47V6.36c0-2.84-2.3-5.13-5.13-5.13S1.13,3.52,1.13,6.36"/>
    </clipPath>
    <linearGradient id="Degradado_sin_nombre_27" data-name="Degradado sin nombre 27" x1="2367.68" y1="1288.45" x2="2368.68" y2="1288.45" gradientTransform="translate(51422.36 94530.9) rotate(-90) scale(39.91 -39.91)" gradientUnits="userSpaceOnUse">
      <stop offset="0" stop-color="#878787"/>
      <stop offset="0" stop-color="#878787"/>
      <stop offset="1" stop-color="#1d1e1b"/>
    </linearGradient>
    <clipPath id="clippath-5">
      <path class="cls-1" d="M137.86,1.51c-2.84,0-5.14,2.3-5.14,5.13s2.3,5.14,5.14,5.14h34.22c.93,0,1.69.76,1.69,1.69v22.46c3.62,1.08,7.05,2.23,10.27,3.45V7.45c0-3.28-2.66-5.94-5.94-5.94h-40.24Z"/>
    </clipPath>
    <linearGradient id="Degradado_sin_nombre_27-2" data-name="Degradado sin nombre 27" x1="2367.68" y1="1288.46" y2="1288.46" gradientTransform="translate(51575.01 94525.54) rotate(-90) scale(39.91 -39.91)" xlink:href="#Degradado_sin_nombre_27"/>
    <linearGradient id="Degradado_sin_nombre_15" data-name="Degradado sin nombre 15" x1="58.66" y1="14.42" x2="125.95" y2="14.42" gradientUnits="userSpaceOnUse">
      <stop offset="0" stop-color="#f5333f"/>
      <stop offset="1" stop-color="#8e0000"/>
    </linearGradient>
    <clipPath id="clippath-6">
      <path class="cls-14" d="M122.98,1.99c-1.82-.84-3.95-.55-5.48.74l-25.19,21.36L67.12,2.73c-1.52-1.29-3.66-1.58-5.48-.74-1.81.84-2.98,2.66-2.98,4.66v20.68c3.36-.33,6.79-.61,10.27-.84v-8.75l9.72,8.24c4.49-.17,9.05-.26,13.67-.26s9.16.09,13.64.26l9.72-8.24v8.75c3.48.23,6.9.51,10.27.84V6.65c0-2-1.16-3.82-2.98-4.66"/>
    </clipPath>
    <linearGradient id="Degradado_sin_nombre_15-2" data-name="Degradado sin nombre 15" x1="2298.81" y1="1117.47" x2="2299.81" y2="1117.47" gradientTransform="translate(57279.92 -27778.47) rotate(-180) scale(24.87 -24.87)" xlink:href="#Degradado_sin_nombre_15"/>
  </defs>
  <g id="Capa_1-2" data-name="Capa 1">
    <g>
      <path class="cls-2" d="M178.1.78h-40.24c-3.23,0-5.86,2.63-5.86,5.86s2.63,5.86,5.86,5.86h34.22c.53,0,.96.43.96.96v27.65c0,.44-.36.8-.8.8h-57.54v32.79c0,3.23,2.63,5.86,5.86,5.86s5.86-2.63,5.86-5.86v-21.07h52c3.5,0,6.34-2.84,6.34-6.34V7.45c0-3.68-2.99-6.67-6.67-6.67ZM12.13,6.36C12.13,3.13,9.5.5,6.27.5S.41,3.13.41,6.36v47.29h57.53v21.07c0,3.23,2.63,5.86,5.86,5.86s5.86-2.63,5.86-5.86v-32.79H12.13V6.36ZM.41,74.71c0,3.23,2.63,5.86,5.86,5.86s5.86-2.63,5.86-5.86v-17.39H.41v17.39ZM114.96,38.24h11.72V6.65c0-2.28-1.33-4.36-3.4-5.32-.78-.36-1.61-.54-2.46-.54-1.39,0-2.73.49-3.79,1.39l-24.72,20.96L67.59,2.17c-1.06-.9-2.4-1.39-3.79-1.39-.86,0-1.68.18-2.46.54-2.07.96-3.4,3.04-3.4,5.32v31.6h11.72v-18.94l18.86,15.99c1.06.9,2.4,1.39,3.79,1.39s2.73-.49,3.79-1.39l18.86-15.99v18.94Z"/>
      <g class="cls-18">
        <rect class="cls-17" x=".41" y=".5" width="184.36" height="80.08"/>
      </g>
      <g class="cls-8">
        <rect class="cls-16" x="1.07" y="58.02" width="10.39" height="21.86" transform="translate(-.4 .04) rotate(-.33)"/>
      </g>
      <g class="cls-11">
        <rect class="cls-7" x=".91" y="1.03" width="68.25" height="79.01" transform="translate(-.23 .2) rotate(-.33)"/>
      </g>
      <g class="cls-9">
        <rect class="cls-6" x="115.2" y="1.31" width="69.06" height="78.73" transform="translate(-.23 .87) rotate(-.33)"/>
      </g>
      <path class="cls-19" d="M115.68,37.52h10.27V6.65c0-2-1.16-3.82-2.98-4.66-1.82-.84-3.95-.55-5.48.74l-25.19,21.36L67.12,2.73c-1.52-1.29-3.66-1.58-5.48-.74-1.81.84-2.98,2.66-2.98,4.66v30.87h10.27v-19.79l20.06,17.01c.96.81,2.14,1.22,3.32,1.22s2.36-.41,3.32-1.22l20.05-17.01v19.79Z"/>
      <g class="cls-10">
        <rect class="cls-15" x=".46" y="1.06" width="11.61" height="38.6" transform="translate(-.71 .23) rotate(-2.02)"/>
      </g>
      <g class="cls-13">
        <rect class="cls-4" x="132.07" y=".62" width="52.62" height="39.66" transform="translate(-.62 5.6) rotate(-2.02)"/>
      </g>
      <g>
        <path class="cls-14" d="M122.98,1.99c-1.82-.84-3.95-.55-5.48.74l-25.19,21.36L67.12,2.73c-1.52-1.29-3.66-1.58-5.48-.74-1.81.84-2.98,2.66-2.98,4.66v20.68c3.36-.33,6.79-.61,10.27-.84v-8.75l9.72,8.24c4.49-.17,9.05-.26,13.67-.26s9.16.09,13.64.26l9.72-8.24v8.75c3.48.23,6.9.51,10.27.84V6.65c0-2-1.16-3.82-2.98-4.66"/>
        <g class="cls-12">
          <rect class="cls-5" x="78.58" y="-19.65" width="27.44" height="67.77" transform="translate(76.33 106.26) rotate(-88.92)"/>
        </g>
      </g>
      <g>
        <path class="cls-3" d="M199.02,21.02c0,.37-.11.67-.34.9s-.53.34-.9.34h-.5c-.37,0-.67-.11-.9-.34-.23-.23-.34-.53-.34-.9V1.77c0-.37.11-.67.34-.9.23-.23.53-.34.9-.34h.5c.37,0,.67.11.9.34.23.23.34.53.34.9v8.6h10.96V1.77c0-.37.11-.67.34-.9.23-.23.53-.34.9-.34h.5c.37,0,.67.11.9.34.23.23.34.53.34.9v19.25c0,.37-.11.67-.34.9s-.53.34-.9.34h-.5c-.37,0-.67-.11-.9-.34-.23-.23-.34-.53-.34-.9v-7.98h-10.96v7.98Z"/>
        <path class="cls-3" d="M219.67,21.02c0,.37-.11.67-.34.9s-.53.34-.9.34h-.5c-.37,0-.67-.11-.9-.34-.23-.23-.34-.53-.34-.9V1.77c0-.37.11-.67.34-.9.23-.23.53-.34.9-.34h.5c.37,0,.67.11.9.34.23.23.34.53.34.9v19.25Z"/>
        <path class="cls-3" d="M239.83,20.18c-.66.72-1.51,1.34-2.55,1.85-1.04.51-2.28.76-3.73.76-1.93,0-3.55-.3-4.88-.89-1.33-.59-2.4-1.4-3.21-2.42-.82-1.02-1.41-2.23-1.77-3.62s-.54-2.88-.54-4.47.18-3.08.54-4.47c.36-1.39.95-2.59,1.77-3.62.82-1.03,1.89-1.83,3.21-2.42,1.32-.59,2.95-.88,4.88-.88,1.2,0,2.26.11,3.18.34.92.23,1.72.53,2.41.92.68.38,1.26.83,1.72,1.33.47.51.85,1.04,1.17,1.6.19.35.21.67.06.96s-.41.49-.81.59l-.62.19c-.35.1-.66.08-.93-.08-.27-.16-.49-.39-.65-.7-.21-.39-.46-.77-.76-1.12-.3-.35-.67-.66-1.1-.93-.43-.27-.95-.48-1.55-.64s-1.3-.23-2.11-.23c-1.3,0-2.42.25-3.35.75s-1.7,1.16-2.31,2c-.61.84-1.06,1.81-1.34,2.92-.28,1.11-.42,2.27-.42,3.49s.14,2.39.42,3.49c.28,1.11.72,2.08,1.34,2.92.61.84,1.38,1.51,2.31,2s2.05.75,3.35.75c1.08,0,2.01-.19,2.79-.57.79-.38,1.44-.85,1.96-1.41.52-.56.9-1.15,1.15-1.79.25-.63.37-1.21.37-1.72v-2.02h-5.06c-.37,0-.67-.11-.9-.34-.23-.23-.34-.53-.34-.9v-.19c0-.37.11-.67.34-.9s.53-.34.9-.34h6.8c.37,0,.67.11.9.34.23.23.34.53.34.9v9.41c0,.37-.11.67-.34.9s-.53.34-.9.34h-.68c-.7,0-1.06-.35-1.06-1.06v-1.02Z"/>
        <path class="cls-3" d="M249.51,21.02c0,.37-.11.67-.34.9s-.53.34-.9.34h-.5c-.37,0-.67-.11-.9-.34-.23-.23-.34-.53-.34-.9V1.77c0-.37.11-.67.34-.9.23-.23.53-.34.9-.34h.5c.37,0,.67.11.9.34.23.23.34.53.34.9v8.6h10.96V1.77c0-.37.11-.67.34-.9.23-.23.53-.34.9-.34h.5c.37,0,.67.11.9.34.23.23.34.53.34.9v19.25c0,.37-.11.67-.34.9s-.53.34-.9.34h-.5c-.37,0-.67-.11-.9-.34-.23-.23-.34-.53-.34-.9v-7.98h-10.96v7.98Z"/>
      </g>
      <g>
        <path class="cls-3" d="M199.06,50.15c0,.37-.11.67-.34.9-.23.23-.53.34-.9.34h-.5c-.37,0-.67-.11-.9-.34-.23-.23-.34-.53-.34-.9v-19.25c0-.37.11-.67.34-.9s.53-.34.9-.34h2.42c.27,0,.51.08.71.23s.36.36.47.61l5.96,17.7,5.99-17.7c.1-.25.26-.45.47-.61s.45-.23.71-.23h2.42c.37,0,.67.11.9.34.23.23.34.53.34.9v19.25c0,.37-.11.67-.34.9s-.53.34-.9.34h-.5c-.37,0-.67-.11-.9-.34-.23-.23-.34-.53-.34-.9v-16.8l-5.81,17.2c-.1.25-.26.45-.47.61-.21.16-.45.23-.71.23h-1.71c-.27,0-.51-.08-.73-.23-.22-.16-.37-.36-.45-.61l-5.81-17.2v16.8Z"/>
        <path class="cls-3" d="M223.52,50.58c-.1.23-.26.42-.47.58s-.45.23-.71.23h-.71c-.48,0-.81-.13-.99-.4-.19-.27-.2-.63-.03-1.09l7.08-19.44c.08-.25.23-.45.43-.59.21-.14.45-.22.71-.22h2.64c.25,0,.48.07.68.22.21.15.36.34.47.59l7.08,19.44c.17.46.15.82-.05,1.09-.2.27-.53.4-1.01.4h-.71c-.27,0-.51-.08-.71-.23s-.35-.35-.43-.58l-1.62-4.41h-10.03l-1.62,4.41ZM226.1,43.5h8.11l-4.07-11.12-4.04,11.12Z"/>
        <path class="cls-3" d="M245.6,50.15c0,.37-.11.67-.34.9-.23.23-.53.34-.9.34h-.5c-.37,0-.67-.11-.9-.34-.23-.23-.34-.53-.34-.9v-19.25c0-.37.11-.67.34-.9s.53-.34.9-.34h1.96c.48,0,.84.21,1.09.62l10.06,17.42v-16.8c0-.37.11-.67.34-.9.23-.23.53-.34.9-.34h.5c.37,0,.67.11.9.34.23.23.34.53.34.9v19.25c0,.37-.11.67-.34.9s-.53.34-.9.34h-1.99c-.46,0-.81-.21-1.06-.62l-10.06-17.42v16.8Z"/>
        <path class="cls-3" d="M281.53,42.11c0,1.9-.18,3.49-.53,4.75-.35,1.26-.9,2.27-1.63,3.01-.73.75-1.66,1.27-2.78,1.58-1.12.31-2.44.47-3.97.47s-2.86-.16-3.98-.47c-1.12-.31-2.04-.84-2.78-1.58-.74-.75-1.28-1.75-1.63-3.01-.35-1.26-.53-2.85-.53-4.75v-11.21c0-.37.11-.67.34-.9s.53-.34.9-.34h.5c.37,0,.67.11.9.34s.34.53.34.9v11.21c0,1.51.11,2.76.33,3.74.22.98.57,1.76,1.06,2.33s1.1.96,1.85,1.18c.75.22,1.65.33,2.7.33s1.96-.11,2.7-.33c.75-.22,1.36-.61,1.85-1.18s.84-1.35,1.06-2.33c.22-.98.33-2.23.33-3.74v-11.21c0-.37.11-.67.34-.9.23-.23.53-.34.9-.34h.5c.37,0,.67.11.9.34.23.23.34.53.34.9v11.21Z"/>
        <path class="cls-3" d="M288.27,50.15c0,.37-.11.67-.34.9s-.53.34-.9.34h-.5c-.37,0-.67-.11-.9-.34-.23-.23-.34-.53-.34-.9v-19.25c0-.37.11-.67.34-.9.23-.23.53-.34.9-.34h11.58c.37,0,.67.11.9.34s.34.53.34.9v.19c0,.37-.11.67-.34.9s-.53.34-.9.34h-9.84v6.86h8.91c.37,0,.67.11.9.34.23.23.34.53.34.9v.19c0,.37-.11.67-.34.9-.23.23-.53.34-.9.34h-8.91v8.29Z"/>
        <path class="cls-3" d="M301.81,50.58c-.1.23-.26.42-.47.58s-.45.23-.71.23h-.71c-.48,0-.81-.13-.99-.4-.19-.27-.2-.63-.03-1.09l7.08-19.44c.08-.25.23-.45.43-.59.21-.14.45-.22.71-.22h2.64c.25,0,.48.07.68.22.21.15.36.34.47.59l7.08,19.44c.17.46.15.82-.05,1.09-.2.27-.53.4-1.01.4h-.71c-.27,0-.51-.08-.71-.23s-.35-.35-.43-.58l-1.62-4.41h-10.03l-1.62,4.41ZM304.38,43.5h8.11l-4.07-11.12-4.04,11.12Z"/>
        <path class="cls-3" d="M338.95,46.8c-.25.64-.6,1.27-1.04,1.89-.45.62-1.03,1.17-1.74,1.65s-1.57.86-2.56,1.15c-.99.29-2.17.44-3.54.44-1.95,0-3.58-.3-4.91-.89-1.33-.59-2.4-1.4-3.21-2.42-.82-1.02-1.4-2.23-1.75-3.62s-.53-2.88-.53-4.47.18-3.08.53-4.47c.35-1.39.94-2.59,1.75-3.62.82-1.03,1.89-1.83,3.21-2.42,1.32-.59,2.96-.88,4.91-.88,1.37,0,2.55.15,3.54.43.99.29,1.85.67,2.56,1.15.71.48,1.29,1.02,1.74,1.63.44.61.79,1.25,1.04,1.91.14.33.13.63-.03.9-.17.27-.42.45-.78.53l-.43.12c-.39.1-.73.07-1.01-.11-.28-.17-.49-.44-.64-.79-.19-.46-.44-.9-.76-1.32-.32-.42-.73-.8-1.21-1.13-.49-.33-1.06-.6-1.72-.79-.66-.2-1.43-.29-2.3-.29-1.3,0-2.43.25-3.37.75-.94.5-1.71,1.16-2.31,2-.6.84-1.04,1.81-1.32,2.92-.28,1.11-.42,2.27-.42,3.49s.14,2.39.42,3.49c.28,1.11.72,2.08,1.32,2.92.6.84,1.37,1.51,2.31,2,.94.5,2.06.75,3.37.75.87,0,1.63-.1,2.3-.29.66-.2,1.24-.46,1.72-.79.49-.33.89-.71,1.21-1.13.32-.42.57-.86.76-1.32.14-.35.36-.62.64-.79.28-.17.62-.21,1.01-.11l.43.09c.35.1.61.29.78.56.17.27.18.57.03.9Z"/>
        <path class="cls-3" d="M350.99,50.15c0,.37-.11.67-.34.9-.23.23-.53.34-.9.34h-.5c-.37,0-.67-.11-.9-.34-.23-.23-.34-.53-.34-.9v-17.82h-5.74c-.37,0-.67-.11-.9-.34-.23-.23-.34-.53-.34-.9v-.19c0-.37.11-.67.34-.9.23-.23.53-.34.9-.34h14.47c.37,0,.67.11.9.34.23.23.34.53.34.9v.19c0,.37-.11.67-.34.9-.23.23-.53.34-.9.34h-5.74v17.82Z"/>
        <path class="cls-3" d="M378.19,42.11c0,1.9-.18,3.49-.53,4.75-.35,1.26-.9,2.27-1.63,3.01-.73.75-1.66,1.27-2.78,1.58-1.12.31-2.44.47-3.97.47s-2.86-.16-3.98-.47c-1.12-.31-2.04-.84-2.78-1.58-.74-.75-1.28-1.75-1.63-3.01-.35-1.26-.53-2.85-.53-4.75v-11.21c0-.37.11-.67.34-.9s.53-.34.9-.34h.5c.37,0,.67.11.9.34s.34.53.34.9v11.21c0,1.51.11,2.76.33,3.74.22.98.57,1.76,1.06,2.33s1.1.96,1.85,1.18c.75.22,1.65.33,2.7.33s1.96-.11,2.7-.33c.75-.22,1.36-.61,1.85-1.18s.84-1.35,1.06-2.33c.22-.98.33-2.23.33-3.74v-11.21c0-.37.11-.67.34-.9.23-.23.53-.34.9-.34h.5c.37,0,.67.11.9.34.23.23.34.53.34.9v11.21Z"/>
        <path class="cls-3" d="M384.93,50.15c0,.37-.11.67-.34.9s-.53.34-.9.34h-.5c-.37,0-.67-.11-.9-.34-.23-.23-.34-.53-.34-.9v-19.25c0-.37.11-.67.34-.9.23-.23.53-.34.9-.34h6.55c2.96,0,5.13.57,6.51,1.71,1.38,1.14,2.06,2.71,2.06,4.72,0,1.33-.3,2.46-.9,3.4s-1.52,1.68-2.76,2.22c.72.43,1.35.95,1.86,1.55.52.6.87,1.26,1.06,1.99l1.3,4.81c.1.41.06.74-.12.98-.19.24-.49.36-.9.36h-.43c-.29,0-.54-.08-.76-.25s-.36-.39-.42-.68l-1.24-4.53c-.15-.54-.4-1.02-.76-1.44-.36-.42-.79-.78-1.27-1.07s-1.01-.51-1.57-.67c-.56-.16-1.11-.23-1.65-.23h-4.81v7.64ZM384.93,40.28h4.81c1.82,0,3.21-.34,4.16-1.03.95-.68,1.43-1.74,1.43-3.17s-.48-2.51-1.43-3.18-2.34-1.01-4.16-1.01h-4.81v8.38Z"/>
        <path class="cls-3" d="M405.33,50.15c0,.37-.11.67-.34.9s-.53.34-.9.34h-.5c-.37,0-.67-.11-.9-.34-.23-.23-.34-.53-.34-.9v-19.25c0-.37.11-.67.34-.9.23-.23.53-.34.9-.34h.5c.37,0,.67.11.9.34.23.23.34.53.34.9v19.25Z"/>
        <path class="cls-3" d="M412.1,50.15c0,.37-.11.67-.34.9-.23.23-.53.34-.9.34h-.5c-.37,0-.67-.11-.9-.34-.23-.23-.34-.53-.34-.9v-19.25c0-.37.11-.67.34-.9s.53-.34.9-.34h1.96c.48,0,.84.21,1.09.62l10.06,17.42v-16.8c0-.37.11-.67.34-.9.23-.23.53-.34.9-.34h.5c.37,0,.67.11.9.34.23.23.34.53.34.9v19.25c0,.37-.11.67-.34.9s-.53.34-.9.34h-1.99c-.46,0-.81-.21-1.06-.62l-10.06-17.42v16.8Z"/>
        <path class="cls-3" d="M446.57,49.31c-.66.72-1.51,1.34-2.55,1.85-1.04.51-2.28.76-3.73.76-1.93,0-3.55-.3-4.88-.89-1.33-.59-2.4-1.4-3.21-2.42-.82-1.02-1.41-2.23-1.77-3.62s-.54-2.88-.54-4.47.18-3.08.54-4.47c.36-1.39.95-2.59,1.77-3.62.82-1.03,1.89-1.83,3.21-2.42,1.32-.59,2.95-.88,4.88-.88,1.2,0,2.26.11,3.18.34.92.23,1.72.53,2.41.92.68.38,1.26.83,1.72,1.33.47.51.85,1.04,1.17,1.6.19.35.21.67.06.96s-.41.49-.81.59l-.62.19c-.35.1-.66.08-.93-.08-.27-.16-.49-.39-.65-.7-.21-.39-.46-.77-.76-1.12-.3-.35-.67-.66-1.1-.93-.43-.27-.95-.48-1.55-.64s-1.3-.23-2.11-.23c-1.3,0-2.42.25-3.35.75s-1.7,1.16-2.31,2c-.61.84-1.06,1.81-1.34,2.92-.28,1.11-.42,2.27-.42,3.49s.14,2.39.42,3.49c.28,1.11.72,2.08,1.34,2.92.61.84,1.38,1.51,2.31,2s2.05.75,3.35.75c1.08,0,2.01-.19,2.79-.57.79-.38,1.44-.85,1.96-1.41.52-.56.9-1.15,1.15-1.79.25-.63.37-1.21.37-1.72v-2.02h-5.06c-.37,0-.67-.11-.9-.34-.23-.23-.34-.53-.34-.9v-.19c0-.37.11-.67.34-.9s.53-.34.9-.34h6.8c.37,0,.67.11.9.34.23.23.34.53.34.9v9.41c0,.37-.11.67-.34.9s-.53.34-.9.34h-.68c-.7,0-1.06-.35-1.06-1.06v-1.02Z"/>
      </g>
      <g>
        <path class="cls-3" d="M199.02,79.28c0,.37-.11.67-.34.9s-.53.34-.9.34h-.5c-.37,0-.67-.11-.9-.34-.23-.23-.34-.53-.34-.9v-19.25c0-.37.11-.67.34-.9.23-.23.53-.34.9-.34h6.55c2.96,0,5.13.57,6.51,1.71,1.38,1.14,2.06,2.71,2.06,4.72s-.69,3.56-2.06,4.7c-1.38,1.15-3.55,1.72-6.51,1.72h-4.81v7.64ZM199.02,69.4h4.81c1.82,0,3.21-.34,4.16-1.03.95-.68,1.43-1.74,1.43-3.17s-.48-2.51-1.43-3.18-2.34-1.01-4.16-1.01h-4.81v8.38Z"/>
        <path class="cls-3" d="M218.18,79.28c0,.37-.11.67-.34.9s-.53.34-.9.34h-.5c-.37,0-.67-.11-.9-.34-.23-.23-.34-.53-.34-.9v-19.25c0-.37.11-.67.34-.9.23-.23.53-.34.9-.34h6.55c2.96,0,5.13.57,6.51,1.71,1.38,1.14,2.06,2.71,2.06,4.72,0,1.33-.3,2.46-.9,3.4s-1.52,1.68-2.76,2.22c.72.43,1.35.95,1.86,1.55.52.6.87,1.26,1.06,1.99l1.3,4.81c.1.41.06.74-.12.98-.19.24-.49.36-.9.36h-.43c-.29,0-.54-.08-.76-.25s-.36-.39-.42-.68l-1.24-4.53c-.15-.54-.4-1.02-.76-1.44-.36-.42-.79-.78-1.27-1.07s-1.01-.51-1.57-.67c-.56-.16-1.11-.23-1.65-.23h-4.81v7.64ZM218.18,69.4h4.81c1.82,0,3.21-.34,4.16-1.03.95-.68,1.43-1.74,1.43-3.17s-.48-2.51-1.43-3.18-2.34-1.01-4.16-1.01h-4.81v8.38Z"/>
        <path class="cls-3" d="M255.54,69.65c0,1.59-.18,3.08-.54,4.47-.36,1.39-.95,2.59-1.77,3.62-.82,1.02-1.89,1.83-3.21,2.42-1.33.59-2.95.89-4.88.89s-3.55-.3-4.88-.89c-1.33-.59-2.4-1.4-3.21-2.42-.82-1.02-1.41-2.23-1.77-3.62s-.54-2.88-.54-4.47.18-3.08.54-4.47c.36-1.39.95-2.59,1.77-3.62.82-1.03,1.89-1.83,3.21-2.42,1.32-.59,2.95-.88,4.88-.88s3.55.29,4.88.88c1.32.59,2.4,1.4,3.21,2.42.82,1.02,1.41,2.23,1.77,3.62.36,1.39.54,2.88.54,4.47ZM237.71,69.65c0,1.22.14,2.39.42,3.49.28,1.11.72,2.08,1.32,2.92.6.84,1.37,1.51,2.31,2,.94.5,2.06.75,3.37.75s2.42-.25,3.35-.75,1.7-1.16,2.31-2c.61-.84,1.06-1.81,1.33-2.92s.42-2.27.42-3.49-.14-2.39-.42-3.49-.72-2.08-1.33-2.92c-.61-.84-1.38-1.51-2.31-2s-2.05-.75-3.35-.75-2.43.25-3.37.75c-.94.5-1.71,1.16-2.31,2-.6.84-1.04,1.81-1.32,2.92-.28,1.11-.42,2.27-.42,3.49Z"/>
        <path class="cls-3" d="M276.9,69.65c0,1.59-.18,3.05-.54,4.38-.36,1.33-.95,2.47-1.77,3.43-.82.96-1.89,1.71-3.21,2.25-1.33.54-2.96.81-4.91.81h-6.24c-.37,0-.67-.11-.9-.34-.23-.23-.34-.53-.34-.9v-19.25c0-.37.11-.67.34-.9.23-.23.53-.34.9-.34h6.24c1.95,0,3.58.27,4.91.81,1.32.54,2.4,1.29,3.21,2.25.82.96,1.41,2.11,1.77,3.43.36,1.33.54,2.79.54,4.38ZM261.97,78.28h4.5c1.43,0,2.62-.22,3.57-.67.95-.45,1.71-1.06,2.28-1.83s.98-1.69,1.23-2.73c.25-1.04.37-2.18.37-3.4s-.12-2.35-.37-3.4c-.25-1.04-.66-1.96-1.23-2.73s-1.33-1.39-2.28-1.83c-.95-.45-2.14-.67-3.57-.67h-4.5v17.27Z"/>
        <path class="cls-3" d="M298.17,71.23c0,1.9-.18,3.49-.53,4.75-.35,1.26-.9,2.27-1.63,3.01-.73.75-1.66,1.27-2.78,1.58-1.12.31-2.44.47-3.97.47s-2.86-.16-3.98-.47c-1.12-.31-2.04-.84-2.78-1.58-.74-.75-1.28-1.75-1.63-3.01-.35-1.26-.53-2.85-.53-4.75v-11.21c0-.37.11-.67.34-.9s.53-.34.9-.34h.5c.37,0,.67.11.9.34s.34.53.34.9v11.21c0,1.51.11,2.76.33,3.74.22.98.57,1.76,1.06,2.33s1.1.96,1.85,1.18c.75.22,1.65.33,2.7.33s1.96-.11,2.7-.33c.75-.22,1.36-.61,1.85-1.18s.84-1.35,1.06-2.33c.22-.98.33-2.23.33-3.74v-11.21c0-.37.11-.67.34-.9.23-.23.53-.34.9-.34h.5c.37,0,.67.11.9.34.23.23.34.53.34.9v11.21Z"/>
        <path class="cls-3" d="M320.93,75.92c-.25.64-.6,1.27-1.04,1.89-.45.62-1.03,1.17-1.74,1.65s-1.57.86-2.56,1.15c-.99.29-2.17.44-3.54.44-1.95,0-3.58-.3-4.91-.89-1.33-.59-2.4-1.4-3.21-2.42-.82-1.02-1.4-2.23-1.75-3.62s-.53-2.88-.53-4.47.18-3.08.53-4.47c.35-1.39.94-2.59,1.75-3.62.82-1.03,1.89-1.83,3.21-2.42,1.32-.59,2.96-.88,4.91-.88,1.37,0,2.55.15,3.54.43.99.29,1.85.67,2.56,1.15.71.48,1.29,1.02,1.74,1.63.44.61.79,1.25,1.04,1.91.14.33.13.63-.03.9-.17.27-.42.45-.78.53l-.43.12c-.39.1-.73.07-1.01-.11-.28-.17-.49-.44-.64-.79-.19-.46-.44-.9-.76-1.32-.32-.42-.73-.8-1.21-1.13-.49-.33-1.06-.6-1.72-.79-.66-.2-1.43-.29-2.3-.29-1.3,0-2.43.25-3.37.75-.94.5-1.71,1.16-2.31,2-.6.84-1.04,1.81-1.32,2.92-.28,1.11-.42,2.27-.42,3.49s.14,2.39.42,3.49c.28,1.11.72,2.08,1.32,2.92.6.84,1.37,1.51,2.31,2,.94.5,2.06.75,3.37.75.87,0,1.63-.1,2.3-.29.66-.2,1.24-.46,1.72-.79.49-.33.89-.71,1.21-1.13.32-.42.57-.86.76-1.32.14-.35.36-.62.64-.79.28-.17.62-.21,1.01-.11l.43.09c.35.1.61.29.78.56.17.27.18.57.03.9Z"/>
        <path class="cls-3" d="M333.01,79.28c0,.37-.11.67-.34.9-.23.23-.53.34-.9.34h-.5c-.37,0-.67-.11-.9-.34-.23-.23-.34-.53-.34-.9v-17.82h-5.74c-.37,0-.67-.11-.9-.34-.23-.23-.34-.53-.34-.9v-.19c0-.37.11-.67.34-.9.23-.23.53-.34.9-.34h14.47c.37,0,.67.11.9.34.23.23.34.53.34.9v.19c0,.37-.11.67-.34.9-.23.23-.53.34-.9.34h-5.74v17.82Z"/>
        <path class="cls-3" d="M358.6,74.68c0,1.06-.22,1.98-.65,2.78s-1.04,1.46-1.8,1.99-1.67.93-2.7,1.2c-1.04.27-2.15.4-3.35.4-1.43,0-2.63-.15-3.62-.44-.98-.29-1.81-.67-2.48-1.15s-1.2-1.02-1.58-1.63c-.38-.61-.69-1.24-.92-1.88-.12-.35-.1-.66.06-.93.17-.27.42-.46.78-.56l.43-.09c.39-.1.73-.07,1.01.11.28.18.48.45.61.82.17.46.39.89.68,1.3s.66.79,1.12,1.12c.46.33,1.01.6,1.68.79.66.2,1.45.29,2.36.29.72,0,1.41-.09,2.06-.26.65-.18,1.23-.43,1.72-.76s.89-.75,1.18-1.24.44-1.06.44-1.68c0-.77-.21-1.4-.64-1.89-.42-.5-.95-.9-1.57-1.21s-1.28-.55-1.97-.71c-.69-.17-1.31-.3-1.85-.4-.27-.06-.65-.14-1.13-.23s-1.02-.24-1.6-.43c-.58-.2-1.17-.44-1.77-.73s-1.14-.65-1.63-1.07c-.49-.42-.88-.93-1.2-1.52-.31-.59-.47-1.27-.47-2.03,0-1.06.19-1.98.56-2.78s.9-1.46,1.58-1.99c.68-.53,1.51-.93,2.48-1.2.97-.27,2.06-.4,3.26-.4,1.41,0,2.58.15,3.52.43.94.29,1.71.67,2.31,1.15.6.48,1.07,1.02,1.4,1.63.33.61.59,1.24.78,1.88.1.35.07.66-.09.93-.17.27-.42.45-.78.53l-.44.12c-.39.1-.73.07-1.01-.11-.28-.17-.47-.45-.57-.82-.12-.46-.29-.9-.51-1.32-.22-.42-.52-.8-.92-1.12s-.9-.58-1.52-.78-1.39-.29-2.3-.29c-1.43,0-2.58.34-3.46,1.02-.88.68-1.32,1.66-1.32,2.92,0,.68.18,1.24.54,1.66.36.42.81.76,1.33,1.01.53.25,1.11.44,1.74.57.63.13,1.21.25,1.72.36.27.04.66.12,1.18.25.52.12,1.09.29,1.72.5.63.21,1.27.48,1.93.81.65.33,1.25.74,1.8,1.21.55.48.99,1.04,1.33,1.68.34.64.51,1.38.51,2.21Z"/>
      </g>
    </g>
  </g>
</svg>