<svg width="23" height="22" viewBox="0 0 23 22" fill="none" xmlns="http://www.w3.org/2000/svg">
<path d="M12.2809 0.48635C12.1343 0.188535 11.8314 0 11.4999 0C11.1685 0 10.8657 0.188535 10.7191 0.48635L7.63711 6.74257L0.745667 7.74581C0.417619 7.79356 0.145085 8.02375 0.0426478 8.3396C-0.0597891 8.65545 0.0256485 9.00216 0.263023 9.23397L5.24971 14.1038L4.07251 20.98C4.01648 21.3074 4.15078 21.6381 4.41896 21.8334C4.68714 22.0286 5.04269 22.0543 5.3361 21.8997L11.4999 18.6532L17.6639 21.8997C17.9573 22.0543 18.3129 22.0286 18.581 21.8334C18.8492 21.6381 18.9834 21.3074 18.9275 20.98L17.7503 14.1038L22.737 9.23397C22.9743 9.00216 23.0598 8.65545 22.9574 8.3396C22.8548 8.02375 22.5823 7.79356 22.2543 7.74581L15.3629 6.74257L12.2809 0.48635Z" fill="#E7000B"/>
</svg>
