<svg width="28" height="22" viewBox="0 0 28 22" fill="none" xmlns="http://www.w3.org/2000/svg">
<path d="M9.59095 0C6.77444 0 4.49121 2.28323 4.49121 5.09974C4.49121 7.91624 6.77444 10.1995 9.59095 10.1995C12.4074 10.1995 14.6907 7.91624 14.6907 5.09974C14.6907 2.28323 12.4074 0 9.59095 0Z" fill="#E7000B"/>
<path d="M0.000262122 20.7722L0.000220682 20.7691L0.000124154 20.7602L0 20.7338C0 20.7121 0.000179282 20.6829 0.000813827 20.6464C0.00211051 20.5736 0.00526949 20.4717 0.0125943 20.3449C0.0272303 20.0916 0.0585713 19.737 0.125336 19.3143C0.258094 18.4738 0.535115 17.3371 1.11939 16.1883C1.70646 15.0339 2.61071 13.8547 3.9947 12.9677C5.38243 12.0784 7.19005 11.5232 9.51647 11.5232C11.8429 11.5232 13.6505 12.0784 15.0382 12.9677C16.4222 13.8547 17.3265 15.0339 17.9135 16.1883C18.4979 17.3371 18.7749 18.4738 18.9076 19.3143C18.9743 19.737 19.0057 20.0916 19.0203 20.3449C19.0277 20.4717 19.0309 20.5736 19.0321 20.6464C19.0328 20.6829 19.033 20.7121 19.033 20.7338L19.0328 20.7602L19.0327 20.7691V20.7736C19.0229 21.338 18.5626 21.7914 17.9982 21.7914H1.03474C0.47035 21.7914 0.0100976 21.3391 0.000303561 20.7747C0.000303561 20.7747 0.0003173 20.7757 0.000262122 20.7722Z" fill="#E7000B"/>
<path d="M20.9252 21.7914C21.0342 21.4835 21.0958 21.1534 21.1019 20.8095L21.1021 20.7997L21.1023 20.7827L21.1025 20.7429V20.7346C21.1025 20.7009 21.1022 20.6591 21.1014 20.6097C21.0996 20.5113 21.0954 20.3817 21.0865 20.2256C21.0684 19.9142 21.0307 19.491 20.9518 18.9915C20.9106 18.7308 20.8573 18.4437 20.7881 18.1367C20.7812 18.1045 20.774 18.0724 20.7664 18.0401C20.4064 16.4969 19.6089 14.3345 17.7922 12.5356C17.4685 12.2151 17.1204 11.914 16.7476 11.6352C17.2912 11.5618 17.8693 11.5232 18.4836 11.5232C20.8099 11.5232 22.6175 12.0784 24.0052 12.9677C25.3892 13.8547 26.2936 15.0339 26.8806 16.1883C27.4649 17.3371 27.7419 18.4738 27.8747 19.3143C27.9415 19.737 27.9728 20.0916 27.9874 20.3449C27.9947 20.4717 27.9979 20.5736 27.9991 20.6464C27.9998 20.6829 28 20.7121 28 20.7338L27.9998 20.7602V20.7691L27.9997 20.7736C27.9899 21.338 27.5296 21.7914 26.9653 21.7914H20.9252Z" fill="#E7000B"/>
<path d="M16.7619 5.09974C16.7619 6.6136 16.2927 8.01787 15.4917 9.17503C16.3452 9.81813 17.4071 10.1995 18.5581 10.1995C21.3746 10.1995 23.6577 7.91624 23.6577 5.09974C23.6577 2.28323 21.3746 0 18.5581 0C17.4071 0 16.3452 0.381293 15.4917 1.02446C16.2927 2.18161 16.7619 3.58587 16.7619 5.09974Z" fill="#E7000B"/>
</svg>
