<svg width="30" height="26" viewBox="0 0 30 26" fill="none" xmlns="http://www.w3.org/2000/svg">
<path d="M17.1382 7.17254C17.7624 7.00632 18.5059 6.83638 19.3074 6.71059C20.4279 6.53476 21.6987 6.43921 22.9343 6.57919C24.1672 6.71888 25.4367 7.10166 26.4728 7.94608C29.1122 10.0975 29.8447 13.3956 29.2614 16.4847C28.6798 19.5655 26.7761 22.5856 23.9219 24.3969C22.5488 25.2684 20.7429 25.6533 18.9308 25.7952C17.0955 25.939 15.1281 25.8421 13.3401 25.6561C11.5473 25.4695 9.9059 25.1903 8.71427 24.9584C8.17303 24.8531 7.72285 24.7571 7.39136 24.6835V7.04337L12.0262 1.24459C12.655 0.457982 13.6072 0 14.6143 0C16.739 0 18.3146 1.97173 17.8457 4.0441L17.1382 7.17254Z" fill="#E7000B"/>
<path d="M5.18256 7.69751H3.31316C1.48335 7.69751 0 9.18086 0 11.0107V21.2555C0 23.0853 1.48335 24.5687 3.31316 24.5687H5.18256V7.69751Z" fill="#E7000B"/>
</svg>
