<svg width="26" height="25" viewBox="0 0 26 25" fill="none" xmlns="http://www.w3.org/2000/svg">
<path d="M0 3.00525C0 1.3455 1.37849 0 3.07895 0H22.9211C24.6215 0 26 1.3455 26 3.00525V17.0943C26 18.7542 24.6215 20.0996 22.9211 20.0996H17.244L13.8245 24.5954C13.6308 24.8499 13.3253 25 13.0004 25C12.6757 25 12.37 24.8499 12.1763 24.5954L8.75695 20.0996H3.07895C1.37849 20.0996 0 18.7542 0 17.0943V3.00525ZM6.1579 7.67094C5.59108 7.67094 5.13158 8.11945 5.13158 8.67269C5.13158 9.22591 5.59108 9.67443 6.1579 9.67443H19.8421C20.4089 9.67443 20.8684 9.22591 20.8684 8.67269C20.8684 8.11945 20.4089 7.67094 19.8421 7.67094H6.1579ZM5.13158 12.6797C5.13158 13.2329 5.59108 13.6814 6.1579 13.6814H13C13.5668 13.6814 14.0263 13.2329 14.0263 12.6797C14.0263 12.1264 13.5668 11.6779 13 11.6779H6.1579C5.59108 11.6779 5.13158 12.1264 5.13158 12.6797Z" fill="#E7000B"/>
</svg>
