<svg width="74" height="74" viewBox="0 0 74 74" fill="none" xmlns="http://www.w3.org/2000/svg">
<path d="M59.6914 40.9006H14.3086C13.5105 40.9006 12.8633 40.2536 12.8633 39.4553V23.1233C12.8633 22.325 13.5105 21.678 14.3086 21.678H59.6914C60.4895 21.678 61.1367 22.325 61.1367 23.1233V39.4553C61.1367 40.2536 60.4895 40.9006 59.6914 40.9006ZM15.7539 38.01H58.2461V24.5686H15.7539V38.01Z" fill="#E7000B"/>
<path d="M54.7321 40.9007C54.7313 40.9007 54.7303 40.9007 54.7292 40.9007H19.6564C19.1996 40.9007 18.7696 40.6847 18.497 40.3182C18.2243 39.9517 18.1409 39.4779 18.2721 39.0403L20.0785 33.0159C20.2619 32.4045 20.8245 31.9858 21.4629 31.9858H52.5371C53.1448 31.9858 53.6876 32.366 53.8953 32.937L56.0555 38.8736C56.1338 39.0517 56.1773 39.2485 56.1773 39.4555C56.1775 40.2536 55.5304 40.9007 54.7321 40.9007ZM21.5986 38.01H52.6652L51.5248 34.8763H22.5384L21.5986 38.01Z" fill="#E7000B"/>
<path d="M21.3908 28.7119H18.9819C18.1838 28.7119 17.5366 28.0648 17.5366 27.2666C17.5366 26.4684 18.1838 25.8213 18.9819 25.8213H21.3908C22.1889 25.8213 22.8361 26.4684 22.8361 27.2666C22.8361 28.0648 22.1889 28.7119 21.3908 28.7119Z" fill="#E7000B"/>
<path d="M23.0288 52.3221C22.2307 52.3221 21.5835 51.675 21.5835 50.8768V44.4142C21.5835 43.6159 22.2307 42.9689 23.0288 42.9689C23.8269 42.9689 24.4741 43.6159 24.4741 44.4142V50.8768C24.4741 51.675 23.8269 52.3221 23.0288 52.3221Z" fill="#E7000B"/>
<path d="M35.4585 52.3221C34.6604 52.3221 34.0132 51.675 34.0132 50.8768V44.4142C34.0132 43.6159 34.6604 42.9689 35.4585 42.9689C36.2566 42.9689 36.9038 43.6159 36.9038 44.4142V50.8768C36.9038 51.675 36.2566 52.3221 35.4585 52.3221Z" fill="#E7000B"/>
<path d="M47.8882 52.3221C47.0901 52.3221 46.4429 51.675 46.4429 50.8768V44.4142C46.4429 43.6159 47.0901 42.9689 47.8882 42.9689C48.6863 42.9689 49.3335 43.6159 49.3335 44.4142V50.8768C49.3335 51.675 48.6863 52.3221 47.8882 52.3221Z" fill="#E7000B"/>
</svg>
