<svg width="51" height="51" viewBox="0 0 51 51" fill="none" xmlns="http://www.w3.org/2000/svg">
<g clip-path="url(#clip0_175_545)">
<path d="M38.25 20.1875V17H36.125V14.875C36.125 13.7478 35.6772 12.6668 34.8802 11.8698C34.0832 11.0728 33.0022 10.625 31.875 10.625H8.5C7.37283 10.625 6.29183 11.0728 5.4948 11.8698C4.69777 12.6668 4.25 13.7478 4.25 14.875V29.75C4.25 30.8772 4.69777 31.9582 5.4948 32.7552C6.29183 33.5522 7.37283 34 8.5 34H31.875C33.0022 34 34.0832 33.5522 34.8802 32.7552C35.6772 31.9582 36.125 30.8772 36.125 29.75V27.625H38.25V24.4375H46.75V20.1875H38.25ZM29.75 29.75H10.625V27.625H29.75V29.75ZM29.75 25.5H10.625V23.375H29.75V25.5ZM29.75 21.25H10.625V19.125H29.75V21.25ZM29.75 17H10.625V14.875H29.75V17ZM6.375 36.125H34V40.375H6.375V36.125Z" fill="#E7000B"/>
</g>
<defs>
<clipPath id="clip0_175_545">
<rect width="51" height="51" fill="white"/>
</clipPath>
</defs>
</svg>
