<svg width="43" height="42" viewBox="0 0 43 42" fill="none" xmlns="http://www.w3.org/2000/svg">
<path fill-rule="evenodd" clip-rule="evenodd" d="M21.5001 0.166626C32.987 0.166626 42.3334 9.51301 42.3334 21C42.3334 32.4869 32.987 41.8333 21.5001 41.8333C10.0131 41.8333 0.666748 32.4869 0.666748 21C0.666748 9.51301 10.0131 0.166626 21.5001 0.166626ZM21.5001 4.33329C12.2774 4.33329 4.83341 11.7773 4.83341 21C4.83341 30.2227 12.2774 37.6666 21.5001 37.6666C30.7228 37.6666 38.1667 30.2227 38.1667 21C38.1667 11.7773 30.7228 4.33329 21.5001 4.33329ZM21.5893 11.4409C23.1652 13.4899 23.6969 16.0108 23.1919 17.8511C23.1288 18.1539 25.3499 20.5154 29.8551 24.9356C31.3282 26.4087 31.3282 27.8818 29.8551 29.355C28.4686 30.7415 27.0821 30.823 25.6956 29.5996L18.3842 22.6588C16.5437 23.1638 14.023 22.6321 11.974 21.0562C10.4711 19.0802 9.95275 16.4972 10.3714 14.646L13.5765 17.8511L16.7816 16.2485L18.3842 13.0434L15.1791 9.83829C17.0303 9.41968 19.6133 9.938 21.5893 11.4409Z" fill="#E7000B"/>
</svg>
