<svg width="45" height="42" viewBox="0 0 45 42" fill="none" xmlns="http://www.w3.org/2000/svg">
<path fill-rule="evenodd" clip-rule="evenodd" d="M29.9992 0.166626V5.19996C30.8492 5.60204 31.6638 6.07079 32.4367 6.60413L33.1825 6.17079L36.7929 4.08954L38.8763 7.69579L42.2075 13.4708L44.2909 17.0791L40.6846 19.1625L39.9388 19.5895C39.9804 20.0625 40.0013 20.5312 40.0013 21C40.0013 21.4687 39.9804 21.9375 39.9388 22.4104L40.6846 22.8375L44.2909 24.9208L42.2075 28.5291L38.8763 34.3041L36.7929 37.9104L33.1825 35.8291L32.4367 35.3958C31.6638 35.9291 30.8492 36.3979 29.9992 36.8V41.8333H15.0013V36.8C14.1513 36.3979 13.3367 35.9291 12.5638 35.3958L11.8159 35.8291L8.20752 37.9104L6.12419 34.3041L2.79085 28.5291L0.70752 24.9208L4.31585 22.8375L5.0596 22.4104C5.02002 21.9375 4.99919 21.4687 4.99919 21C4.99919 20.5312 5.02002 20.0625 5.0596 19.5895L4.31585 19.1625L0.70752 17.0791L2.79085 13.4708L6.12419 7.69579L8.20752 4.08954L11.8159 6.17079L12.5638 6.60413C13.3367 6.07079 14.1513 5.60204 15.0013 5.19996V0.166626H29.9992ZM25.8325 4.33329H19.1679V8.10413C16.7867 8.71663 14.6617 9.96038 12.9909 11.6625L9.73252 9.77913L6.39919 15.5541L9.66169 17.4375C9.34919 18.5729 9.16585 19.7645 9.16585 21C9.16585 22.2354 9.34919 23.427 9.66169 24.5625L6.39919 26.4458L9.73252 32.2208L12.9909 30.3375C14.6617 32.0395 16.7867 33.2833 19.1679 33.8958V37.6666H25.8325V33.8958C28.2138 33.2833 30.3388 32.0395 32.0096 30.3375L35.2659 32.2208L38.6013 26.4458L35.3388 24.5625C35.6513 23.427 35.8346 22.2354 35.8346 21C35.8346 19.7645 35.6513 18.5729 35.3388 17.4375L38.6013 15.5541L35.2659 9.77913L32.0096 11.6625C30.3388 9.96038 28.2138 8.71663 25.8325 8.10413V4.33329ZM22.5 12.6666C27.1027 12.6666 30.8334 16.3973 30.8334 21C30.8334 25.6026 27.1027 29.3333 22.5 29.3333C17.8973 29.3333 14.1667 25.6026 14.1667 21C14.1667 16.3973 17.8973 12.6666 22.5 12.6666ZM22.5 16.8333C20.1985 16.8333 18.3334 18.6985 18.3334 21C18.3334 23.3014 20.1985 25.1666 22.5 25.1666C24.8015 25.1666 26.6667 23.3014 26.6667 21C26.6667 18.6985 24.8015 16.8333 22.5 16.8333Z" fill="#E7000B"/>
</svg>
