<svg width="50" height="50" viewBox="0 0 50 50" fill="none" xmlns="http://www.w3.org/2000/svg">
<g clip-path="url(#clip0_52_141)">
<path d="M28.8195 13.8889C31.8877 13.8889 34.375 11.4016 34.375 8.33333C34.375 5.26508 31.8877 2.77777 28.8195 2.77777C25.7512 2.77777 23.2639 5.26508 23.2639 8.33333C23.2639 11.4016 25.7512 13.8889 28.8195 13.8889Z" fill="#E7000B"/>
<path d="M34.5 36.4306C34.3465 36.3273 34.174 36.2558 33.9925 36.2201C33.811 36.1845 33.6242 36.1855 33.443 36.223C33.2619 36.2605 33.0901 36.3338 32.9377 36.4386C32.7853 36.5434 32.6554 36.6776 32.5555 36.8334C31.2129 38.8218 29.5681 40.5884 27.6805 42.0695C27.2222 42.4167 25.5139 43.7361 24.7916 43.4584C24.2916 43.3056 24.5833 42.3195 24.6805 41.9028L25.4166 39.7222C25.7222 38.8334 31.0416 23.0556 31.625 21.25C32.4861 18.6111 32.1111 16.0139 28.1805 16.6389C27.1111 16.75 16.2639 18.1528 16.0694 18.1667C15.887 18.1785 15.7088 18.2262 15.5448 18.307C15.3808 18.3877 15.2344 18.5 15.1138 18.6373C14.9932 18.7747 14.9008 18.9344 14.842 19.1075C14.7831 19.2805 14.759 19.4635 14.7708 19.6459C14.7827 19.8283 14.8303 20.0065 14.9111 20.1705C14.9918 20.3345 15.1041 20.4809 15.2414 20.6015C15.3788 20.7221 15.5386 20.8145 15.7116 20.8733C15.8846 20.9321 16.0676 20.9563 16.25 20.9445C16.25 20.9445 20.4166 20.4028 20.875 20.3611C21.1097 20.3382 21.3461 20.3837 21.5556 20.4922C21.7651 20.6006 21.9387 20.7673 22.0555 20.9722C22.3072 21.7502 22.2727 22.5925 21.9583 23.3472C21.5972 24.7361 15.8889 40.8195 15.7083 41.75C15.5147 42.5287 15.5684 43.3484 15.8621 44.0952C16.1559 44.8419 16.6749 45.4786 17.3472 45.9167C18.609 46.7577 20.1114 47.1626 21.625 47.0695C23.0966 47.0515 24.552 46.7595 25.9166 46.2084C29.375 44.8195 32.9861 41.125 34.8889 38.2222C35.0527 37.9273 35.1036 37.5828 35.0321 37.2531C34.9605 36.9234 34.7714 36.631 34.5 36.4306Z" fill="#E7000B"/>
</g>
<defs>
<clipPath id="clip0_52_141">
<rect width="50" height="50" fill="white"/>
</clipPath>
</defs>
</svg>
