<svg width="50" height="50" viewBox="0 0 50 50" fill="none" xmlns="http://www.w3.org/2000/svg">
<g clip-path="url(#clip0_52_145)">
<path d="M27.2222 21.3889H22.7778V28.6111H27.2222V21.3889Z" fill="#FB2C36"/>
<path d="M29.1667 29.1667C29.1667 29.535 29.0203 29.8883 28.7599 30.1488C28.4994 30.4093 28.1461 30.5556 27.7778 30.5556H22.2222C21.8539 30.5556 21.5006 30.4093 21.2401 30.1488C20.9797 29.8883 20.8333 29.535 20.8333 29.1667V26.3889H2.77777V38.8889C2.77777 39.6256 3.07043 40.3322 3.59136 40.8531C4.1123 41.374 4.81884 41.6667 5.55555 41.6667H44.4444C45.1811 41.6667 45.8877 41.374 46.4086 40.8531C46.9296 40.3322 47.2222 39.6256 47.2222 38.8889V26.3889H29.1667V29.1667Z" fill="#FB2C36"/>
<path d="M46.8195 17.1944L41.1389 11.5139C40.8802 11.2573 40.531 11.1126 40.1667 11.1111H33.2222V8.40276C33.2411 7.67298 32.9718 6.96511 32.4728 6.43228C31.9738 5.89946 31.285 5.5845 30.5556 5.55554H19.2222C18.8658 5.56957 18.5157 5.65498 18.1929 5.80671C17.87 5.95845 17.5809 6.17343 17.3426 6.43892C17.1043 6.70441 16.9217 7.01501 16.8056 7.35234C16.6895 7.68966 16.6423 8.04686 16.6667 8.40276V11.1111H9.83335C9.65056 11.11 9.46936 11.1451 9.30015 11.2142C9.13093 11.2833 8.97702 11.3852 8.84724 11.5139L3.18057 17.1944C3.05185 17.3242 2.95001 17.4781 2.88089 17.6473C2.81177 17.8166 2.77674 17.9978 2.77779 18.1805V23.6111H20.8333V20.8333C20.8333 20.465 20.9797 20.1117 21.2401 19.8512C21.5006 19.5908 21.8539 19.4444 22.2222 19.4444H27.7778C28.1462 19.4444 28.4994 19.5908 28.7599 19.8512C29.0204 20.1117 29.1667 20.465 29.1667 20.8333V23.6111H47.2222V18.1667C47.2207 17.8023 47.076 17.4531 46.8195 17.1944ZM30.5556 11.1111H19.4445V8.33332H30.5556V11.1111Z" fill="#FB2C36"/>
</g>
<defs>
<clipPath id="clip0_52_145">
<rect width="50" height="50" fill="white"/>
</clipPath>
</defs>
</svg>
