<svg width="28" height="28" viewBox="0 0 28 28" fill="none" xmlns="http://www.w3.org/2000/svg">
<path d="M27.8801 1.11149C27.8209 0.592005 27.411 0.182088 26.8916 0.122844C21.3426 -0.50996 15.5628 1.30196 11.3041 5.56067C10.3033 6.56148 9.43737 7.64666 8.70651 8.79334L8.70196 8.79352C8.58717 8.97367 8.47571 9.15535 8.36758 9.33846C7.28936 11.1643 6.54315 13.1313 6.12863 15.1521C6.0528 15.5217 6.16776 15.9049 6.43462 16.1717L11.8233 21.5604C12.0901 21.8272 12.4732 21.9421 12.8429 21.8664C14.863 21.4523 16.8297 20.7067 18.6553 19.6291C20.0066 18.8316 21.2794 17.8529 22.4384 16.6939L22.4409 16.6963C26.6988 12.4386 28.5117 6.65944 27.8801 1.11149ZM20.999 7.00405C22.3467 8.35176 22.3467 10.5368 20.999 11.8846C19.6514 13.2322 17.4662 13.2322 16.1186 11.8846C14.7708 10.5368 14.7708 8.35176 16.1186 7.00405C17.4662 5.65634 19.6514 5.65634 20.999 7.00405Z" fill="#E7000B"/>
<path d="M18.9512 21.1848C17.1131 22.2055 15.1524 22.9214 13.1434 23.3331C12.8209 23.3993 12.4942 23.4032 12.1789 23.3496C12.3607 24.4447 12.3432 25.5668 12.1259 26.6578C12.0416 27.0808 12.2071 27.5146 12.5517 27.7741C12.8962 28.0336 13.359 28.0727 13.7423 27.8749C14.6478 27.4073 15.4966 26.7945 16.2534 26.0377C17.6393 24.6517 18.5386 22.9633 18.9512 21.1848Z" fill="#E7000B"/>
<path d="M4.64588 15.8183C4.59193 15.5023 4.59572 15.1747 4.66203 14.8513C5.07373 12.8443 5.78894 10.8855 6.8082 9.04919C5.032 9.46236 3.34583 10.3612 1.96141 11.7455C1.20513 12.5019 0.592601 13.3499 0.125222 14.2548C-0.0727065 14.6379 -0.0336449 15.1007 0.225714 15.4454C0.485087 15.7899 0.918929 15.9556 1.34195 15.8715C2.43156 15.6547 3.55218 15.637 4.64588 15.8183Z" fill="#E7000B"/>
<path d="M1.54205 25.3762C1.56337 25.9645 2.03532 26.4367 2.62353 26.458L2.62542 26.4581L2.62847 26.4583L2.63803 26.4586L2.67043 26.4595C2.69435 26.4601 2.72696 26.4608 2.76734 26.4615L2.78513 26.4618C2.88237 26.4633 3.01999 26.4642 3.18714 26.4624C3.51966 26.4589 3.97753 26.4439 4.47099 26.3978C4.95896 26.3523 5.51291 26.2734 6.02632 26.1322C6.50716 26 7.10745 25.7731 7.54472 25.3358C8.89243 23.9882 8.89243 21.803 7.54472 20.4554C6.197 19.1076 4.01194 19.1076 2.66423 20.4554C2.22696 20.8926 2.0001 21.493 1.86789 21.9737C1.72672 22.4872 1.64786 23.0411 1.60225 23.5291C1.55614 24.0226 1.54123 24.4805 1.5376 24.813C1.53578 24.9801 1.53678 25.1177 1.53829 25.215C1.53904 25.2636 1.53993 25.3023 1.54064 25.3297L1.54159 25.362L1.54189 25.3716L1.54205 25.3762Z" fill="#E7000B"/>
</svg>
