<svg width="31" height="27" viewBox="0 0 31 27" fill="none" xmlns="http://www.w3.org/2000/svg">
<path d="M0 3.47144C0 1.55422 1.55422 0 3.47144 0H27.3858C29.303 0 30.8573 1.55422 30.8573 3.47144V12.093C30.1977 11.2671 29.4173 10.5419 28.543 9.94421V3.47144C28.543 2.83237 28.0249 2.31429 27.3858 2.31429H3.47144C2.83237 2.31429 2.31429 2.83237 2.31429 3.47144V19.6715C2.31429 20.3106 2.83237 20.8286 3.47144 20.8286H12.1694C12.3335 21.6373 12.5896 22.4125 12.9264 23.1429H3.47144C1.55422 23.1429 0 21.5887 0 19.6715V3.47144Z" fill="#E7000B"/>
<path d="M25.0716 8.10018H5.78581C5.14674 8.10018 4.62866 7.58211 4.62866 6.94304C4.62866 6.30397 5.14674 5.78589 5.78581 5.78589H25.0716C25.7106 5.78589 26.2287 6.30397 26.2287 6.94304C26.2287 7.58211 25.7106 8.10018 25.0716 8.10018Z" fill="#E7000B"/>
<path d="M13.8014 12.7286C14.3752 11.8891 15.0664 11.1364 15.8516 10.4941C15.7206 10.4425 15.5779 10.4143 15.4287 10.4143H5.78581C5.14674 10.4143 4.62866 10.9324 4.62866 11.5715C4.62866 12.2105 5.14674 12.7286 5.78581 12.7286H13.8014Z" fill="#E7000B"/>
<path fill-rule="evenodd" clip-rule="evenodd" d="M28.7843 16.6344C28.7843 18.5117 27.9524 20.195 26.6373 21.3355V25.8429C26.6373 26.3016 26.3664 26.717 25.9466 26.9018C25.5269 27.0868 25.0375 27.0063 24.6991 26.6968L22.5666 24.7463L20.4341 26.6968C20.0956 27.0063 19.6062 27.0868 19.1865 26.9018C18.7668 26.717 18.4959 26.3016 18.4959 25.8429V21.3393C17.178 20.1988 16.3442 18.5139 16.3442 16.6344C16.3442 13.199 19.1291 10.4143 22.5643 10.4143C25.9995 10.4143 28.7843 13.199 28.7843 16.6344ZM22.5643 12.7286C20.4072 12.7286 18.6585 14.4773 18.6585 16.6344C18.6585 18.7913 20.4072 20.54 22.5643 20.54C24.7214 20.54 26.47 18.7913 26.47 16.6344C26.47 14.4773 24.7214 12.7286 22.5643 12.7286Z" fill="#E7000B"/>
</svg>
