<svg width="26" height="29" viewBox="0 0 26 29" fill="none" xmlns="http://www.w3.org/2000/svg">
<path d="M11.7278 0.252443C12.5443 -0.0841477 13.4617 -0.0841477 14.2782 0.252443L23.975 4.24972C25.124 4.72335 25.9568 5.8173 25.9906 7.11811C26.1638 13.8153 24.0055 23.0417 14.5836 28.5682C13.6108 29.1389 12.4045 29.1441 11.4269 28.5827C1.79592 23.0529 -0.184707 13.8039 0.012984 7.114C0.0513079 5.81692 0.881343 4.72366 2.03109 4.2497L11.7278 0.252443ZM18.1968 9.71023C17.7631 9.27866 17.06 9.27866 16.6263 9.71023L11.4706 14.84L9.38074 12.7605C8.947 12.3289 8.2438 12.3291 7.81008 12.7605C7.37636 13.1921 7.37636 13.8918 7.81008 14.3234L10.6853 17.1842C11.119 17.6158 11.8223 17.6158 12.256 17.1842L18.1968 11.273C18.6306 10.8415 18.6306 10.1418 18.1968 9.71023Z" fill="#E7000B"/>
</svg>
