<svg width="234" height="55" viewBox="0 0 234 55" fill="none" xmlns="http://www.w3.org/2000/svg">
<path d="M50.6554 31.1036H37.8386V2.62598H51.8631C55.4861 2.62598 57.9794 3.8726 59.3818 6.3269C60.083 7.61248 60.4337 8.97598 60.4337 10.4174C60.4337 13.1054 59.2649 14.8975 56.9665 15.7545C58.3689 16.261 59.4597 17.157 60.2389 18.4425C60.9401 19.6502 61.2907 21.0527 61.2907 22.611C61.2907 25.6106 60.1999 27.7922 58.0573 29.2726C56.2263 30.4803 53.733 31.1036 50.6554 31.1036ZM54.707 10.6511C54.707 9.40451 54.2784 8.54745 53.4214 8.07996C52.7591 7.72935 51.7852 7.57353 50.4606 7.57353H43.5652V13.7677H50.8113C53.3824 13.7677 54.707 12.7159 54.707 10.6511ZM54.1616 19.4554C53.2656 18.8711 52.2916 18.5984 51.1619 18.5984H43.5263V26.2729H51.084C52.2916 26.2729 53.3435 25.8833 54.2005 25.1432C55.0576 24.403 55.4861 23.3901 55.4861 22.1824C55.5251 20.9358 55.0576 20.0398 54.1616 19.4554Z" fill="#71717B"/>
<path d="M82.4834 22.0267H67.9524C68.0693 23.5071 68.4978 24.7148 69.2769 25.6108C70.134 26.6626 71.2638 27.1691 72.7441 27.1691C73.6012 27.1691 74.3414 26.9743 75.0426 26.6237C75.8217 26.1951 76.3282 25.6108 76.5619 24.8706H82.2496C81.6263 27.0132 80.4966 28.6494 78.8604 29.8182C77.2242 30.9869 75.2763 31.5712 73.0558 31.5712C66.0045 31.5712 62.4984 27.7534 62.4984 20.0789C62.4984 16.8455 63.3944 14.2743 65.1864 12.3264C66.9785 10.3786 69.4717 9.4436 72.7052 9.4436C79.172 9.48256 82.4834 13.651 82.4834 22.0267ZM76.7957 18.5206C76.6788 17.235 76.2892 16.1832 75.549 15.3651C74.7309 14.3912 73.718 13.9237 72.5104 13.9237C71.3027 13.9237 70.2898 14.3912 69.5107 15.3651C68.8484 16.2221 68.3809 17.274 68.2251 18.5206H76.7957Z" fill="#71717B"/>
<path d="M103.325 31.1037H97.7545V18.3648C97.7545 16.8844 97.5208 15.8326 97.0922 15.2482C96.5079 14.547 95.5339 14.1964 94.0925 14.1964C91.2097 14.1964 89.7683 15.8326 89.7683 19.066V31.1037H84.1974V9.98901H89.5735V11.9758C89.5735 12.716 89.5735 13.1056 89.6125 13.1445C89.6125 13.1056 89.6125 13.1056 89.6514 13.1056C90.3137 11.9369 91.2487 11.0408 92.4563 10.4175C93.664 9.75526 94.9886 9.4436 96.3521 9.4436C99.157 9.4436 101.183 10.5344 102.429 12.716C103.014 13.7289 103.286 15.0145 103.286 16.5338V31.1037H103.325Z" fill="#71717B"/>
<path d="M124.401 17.5467H118.83C118.674 16.5728 118.246 15.7546 117.584 15.0924C116.921 14.4301 116.103 14.1184 115.129 14.1184C113.61 14.1184 112.48 14.8197 111.662 16.1832C111 17.274 110.688 18.6375 110.688 20.2347C110.688 24.7927 112.052 27.0912 114.857 27.0912C115.909 27.1301 116.805 26.7795 117.506 26.0783C118.207 25.377 118.636 24.481 118.752 23.4292H124.401C124.089 25.9224 123.038 27.9093 121.207 29.4286C119.415 30.9479 117.233 31.727 114.701 31.727C111.545 31.766 109.091 30.7142 107.416 28.6494C105.819 26.7405 105.039 24.1694 105.039 20.9359C105.039 17.5077 105.819 14.7807 107.338 12.7939C109.052 10.5734 111.584 9.4436 114.896 9.4436C117.545 9.4436 119.687 10.1448 121.44 11.5083C123.232 12.9497 124.245 14.9755 124.401 17.5467Z" fill="#71717B"/>
<path d="M145.009 31.1036H139.439V18.3646C139.439 16.9232 139.205 15.8714 138.737 15.2481C138.192 14.5468 137.218 14.1962 135.816 14.1962C134.452 14.1962 133.361 14.6637 132.621 15.5987C131.881 16.5337 131.491 17.6634 131.491 19.0659V31.1036H125.92V2.62598H131.491V12.7548C131.959 11.7419 132.855 10.9628 134.14 10.4174C135.231 9.9499 136.439 9.71617 137.724 9.71617C139.867 9.71617 141.659 10.3005 143.023 11.5082C144.386 12.6769 145.048 14.3521 145.048 16.4947V31.1036H145.009Z" fill="#71717B"/>
<path d="M177.422 31.1037H171.968V18.4037C171.968 17.3129 171.734 16.339 171.228 15.5209C170.604 14.5859 169.786 14.1185 168.734 14.1185C167.605 14.1185 166.708 14.5859 166.046 15.5209C165.462 16.378 165.189 17.3909 165.189 18.5596V31.0648H159.579V18.4037C159.579 16.9623 159.385 15.9105 159.034 15.3261C158.566 14.547 157.632 14.1185 156.268 14.1185C154.008 14.1185 152.84 15.4819 152.84 18.2479V31.0648H147.269V9.95005H152.528V11.9758C152.528 12.716 152.528 13.1056 152.567 13.1445C152.567 13.1056 152.567 13.1056 152.606 13.0666C153.424 11.82 154.242 10.924 155.099 10.3396C156.034 9.75527 157.242 9.4436 158.644 9.4436C160.086 9.4436 161.216 9.7163 162.073 10.2227C162.93 10.7292 163.748 11.5862 164.527 12.8329C166.085 10.5734 167.994 9.4436 170.215 9.4436C171.539 9.4436 172.786 9.75527 173.993 10.3786C175.24 11.0798 176.136 11.9758 176.681 13.1056C177.188 14.1964 177.461 15.3651 177.461 16.5338V31.1037H177.422Z" fill="#71717B"/>
<path d="M197.913 31.1037H192.732C192.576 30.831 192.381 30.2466 192.225 29.3896C190.94 30.831 188.875 31.5712 186.07 31.5712C184.044 31.5712 182.408 31.1037 181.123 30.1298C179.72 29.0779 179.019 27.5586 179.019 25.6107C179.019 22.7279 180.149 20.7411 182.408 19.6503C183.421 19.1439 185.564 18.7153 188.719 18.2868C190.979 18.0141 192.108 17.3908 192.108 16.4558C192.108 15.5988 191.758 14.9365 191.057 14.469C190.355 14.0016 189.576 13.7678 188.719 13.7678C187.745 13.7678 186.927 14.0405 186.226 14.6249C185.564 15.1703 185.174 15.9494 185.057 16.9233H179.72C179.993 13.5341 181.473 11.3135 184.2 10.3006C185.642 9.75523 187.2 9.52148 188.953 9.52148C194.952 9.56044 197.952 12.4433 197.952 18.131V31.1037H197.913ZM192.031 20.819C191.485 21.2865 190.511 21.6371 189.109 21.9098C187.551 22.1825 186.538 22.4942 186.031 22.7279C185.057 23.2733 184.551 24.1304 184.551 25.3381C184.551 26.9353 185.369 27.7144 187.044 27.7144C187.784 27.7144 188.563 27.5586 189.381 27.208C190.2 26.8574 190.823 26.4288 191.29 25.8834C191.836 25.1822 192.108 24.1693 192.108 22.8448C192.108 22.6111 192.109 22.2604 192.07 21.8319C192.031 21.3644 192.031 21.0528 192.031 20.819Z" fill="#71717B"/>
<path d="M212.522 15.1702C211.977 15.0922 211.47 15.0533 210.964 15.0533C207.574 15.0533 205.86 16.7284 205.86 20.1177V31.0646H200.289V9.94991H205.549V11.5861C205.549 12.1705 205.549 12.4821 205.588 12.4821C205.588 12.4432 205.666 12.4432 205.705 12.4042C206.717 11.3134 207.536 10.5732 208.159 10.2616C209.094 9.75512 210.301 9.48242 211.743 9.48242H212.483V15.1702H212.522Z" fill="#71717B"/>
<path d="M233.715 31.1036H227.443L222.807 21.637L220.08 24.4419V31.1036H214.509V2.62598H220.08V18.014L227.053 9.98887H233.87L226.858 17.7413L233.715 31.1036Z" fill="#71717B"/>
<path d="M153.814 43.9206C154.476 44.2712 154.982 44.6997 155.333 45.2062C155.684 45.7126 155.878 46.3359 155.995 46.9982C156.112 47.4657 156.151 48.2059 156.151 49.2188H148.866C148.905 50.2316 149.139 51.0497 149.567 51.6731C149.996 52.2964 150.697 52.608 151.632 52.608C152.489 52.608 153.19 52.2964 153.736 51.751C154.009 51.4004 154.242 51.0108 154.359 50.5823H156.034C155.995 50.9718 155.839 51.3614 155.606 51.8289C155.372 52.2964 155.099 52.647 154.788 52.9586C154.281 53.4651 153.658 53.7767 152.879 53.9715C152.489 54.0884 152.022 54.1273 151.515 54.1273C150.269 54.1273 149.217 53.6599 148.36 52.7638C147.503 51.8678 147.074 50.5823 147.074 48.9461C147.074 47.3099 147.503 45.9853 148.36 45.0114C149.217 43.9985 150.386 43.4921 151.788 43.4921C152.45 43.4142 153.151 43.57 153.814 43.9206ZM154.437 47.8942C154.359 47.154 154.203 46.5697 153.97 46.1022C153.502 45.2841 152.723 44.8556 151.671 44.8556C150.892 44.8556 150.269 45.1283 149.723 45.7126C149.217 46.297 148.944 46.9982 148.905 47.8942H154.437Z" fill="#71717B"/>
<path d="M159.579 39.908H157.865V53.7377H159.579V39.908Z" fill="#71717B"/>
<path d="M167.838 43.9206C168.501 44.2712 169.007 44.6997 169.358 45.2062C169.708 45.7126 169.903 46.3359 170.02 46.9982C170.098 47.4657 170.176 48.2059 170.176 49.2188H162.891C162.93 50.2316 163.163 51.0497 163.592 51.6731C164.02 52.2964 164.722 52.608 165.657 52.608C166.514 52.608 167.215 52.2964 167.76 51.751C168.033 51.4004 168.228 51.0108 168.345 50.5823H170.02C169.981 50.9718 169.825 51.3614 169.591 51.8289C169.358 52.2964 169.085 52.647 168.773 52.9586C168.267 53.4651 167.643 53.7767 166.903 53.9715C166.514 54.0884 166.046 54.1273 165.54 54.1273C164.293 54.1273 163.241 53.6599 162.384 52.7638C161.527 51.8678 161.099 50.5823 161.099 48.9461C161.099 47.3099 161.527 45.9853 162.384 45.0114C163.241 43.9985 164.41 43.4921 165.813 43.4921C166.514 43.4142 167.176 43.57 167.838 43.9206ZM168.462 47.8942C168.384 47.154 168.228 46.5697 167.994 46.1022C167.527 45.2841 166.747 44.8556 165.696 44.8556C164.916 44.8556 164.293 45.1283 163.748 45.7126C163.241 46.297 162.969 46.9982 162.93 47.8942H168.462Z" fill="#71717B"/>
<path d="M178.629 44.1544C179.331 44.6998 179.759 45.6737 179.915 46.9983H178.279C178.162 46.375 177.967 45.8685 177.578 45.44C177.227 45.0115 176.643 44.8167 175.863 44.8167C174.773 44.8167 173.993 45.3621 173.526 46.4139C173.214 47.1152 173.058 47.9333 173.058 48.9461C173.058 49.959 173.292 50.8161 173.721 51.4783C174.149 52.1796 174.812 52.5302 175.747 52.5302C176.448 52.5302 177.032 52.3354 177.422 51.8679C177.85 51.4394 178.123 50.855 178.279 50.1148H179.915C179.72 51.4394 179.253 52.4523 178.512 53.0366C177.772 53.6599 176.798 53.9716 175.63 53.9716C174.305 53.9716 173.253 53.5041 172.474 52.5302C171.695 51.5563 171.305 50.3486 171.305 48.9072C171.305 47.1541 171.734 45.7517 172.591 44.7777C173.448 43.8038 174.539 43.2974 175.863 43.2974C176.993 43.3363 177.928 43.609 178.629 44.1544Z" fill="#71717B"/>
<path d="M181.512 40.843H183.187V43.6479H184.824V45.0504H183.187V51.5952C183.187 51.9458 183.304 52.1795 183.538 52.2964C183.655 52.3743 183.889 52.4133 184.2 52.4133C184.278 52.4133 184.356 52.4133 184.473 52.4133C184.551 52.4133 184.668 52.4133 184.824 52.4133V53.7768C184.629 53.8547 184.434 53.8547 184.2 53.8936C184.005 53.9326 183.772 53.9326 183.499 53.9326C182.72 53.9326 182.174 53.7378 181.902 53.3093C181.629 52.9197 181.473 52.3743 181.473 51.712V40.843H181.512Z" fill="#71717B"/>
<path d="M186.343 43.6088H187.979V45.4009C188.096 45.0503 188.447 44.6217 188.953 44.1542C189.459 43.6478 190.083 43.4141 190.745 43.4141C190.784 43.4141 190.823 43.4141 190.901 43.4141C190.979 43.4141 191.096 43.453 191.29 43.453V45.245C191.174 45.2061 191.096 45.2061 191.018 45.2061C190.94 45.2061 190.862 45.2061 190.745 45.2061C189.888 45.2061 189.226 45.4788 188.758 46.0242C188.291 46.5696 188.057 47.1929 188.057 47.9331V53.6987H186.343V43.6088Z" fill="#71717B"/>
<path d="M199.549 44.6218C200.445 45.4788 200.874 46.7644 200.874 48.4396C200.874 50.0758 200.484 51.4003 199.705 52.4521C198.926 53.504 197.718 54.0494 196.043 54.0494C194.68 54.0494 193.55 53.5819 192.771 52.6469C191.953 51.712 191.563 50.4653 191.563 48.8681C191.563 47.154 191.992 45.8294 192.849 44.8166C193.706 43.8037 194.836 43.3362 196.277 43.3362C197.601 43.3362 198.692 43.7647 199.549 44.6218ZM198.536 51.3224C198.965 50.4653 199.16 49.5304 199.16 48.4785C199.16 47.5435 199.004 46.7644 198.692 46.1801C198.225 45.2451 197.407 44.7776 196.238 44.7776C195.225 44.7776 194.485 45.1672 194.017 45.9853C193.55 46.7644 193.316 47.7383 193.316 48.8681C193.316 49.9589 193.55 50.8549 194.017 51.5561C194.485 52.2963 195.225 52.6469 196.238 52.6469C197.368 52.608 198.108 52.1794 198.536 51.3224Z" fill="#71717B"/>
<path d="M202.12 43.6088H203.718V45.0503C204.185 44.4659 204.692 44.0374 205.237 43.8036C205.782 43.5309 206.367 43.4141 207.029 43.4141C208.432 43.4141 209.405 43.9205 209.912 44.8944C210.185 45.4398 210.301 46.219 210.301 47.2318V53.6987H208.626V47.3487C208.626 46.7254 208.548 46.219 208.354 45.8684C208.042 45.245 207.497 44.9334 206.717 44.9334C206.328 44.9334 205.977 44.9723 205.705 45.0503C205.237 45.2061 204.847 45.4788 204.497 45.8684C204.224 46.219 204.029 46.5306 203.951 46.8812C203.874 47.2319 203.835 47.7383 203.835 48.4006V53.6987H202.159V43.6088H202.12Z" fill="#71717B"/>
<path d="M213.808 43.6089H212.132V53.6988H213.808V43.6089Z" fill="#71717B"/>
<path d="M222.651 44.1544C223.352 44.6998 223.781 45.6737 223.936 46.9983H222.3C222.183 46.375 221.95 45.8685 221.599 45.44C221.248 45.0115 220.664 44.8167 219.885 44.8167C218.794 44.8167 218.015 45.3621 217.547 46.4139C217.236 47.1152 217.08 47.9333 217.08 48.9461C217.08 49.959 217.314 50.8161 217.742 51.4783C218.171 52.1796 218.872 52.5302 219.768 52.5302C220.469 52.5302 221.015 52.3354 221.443 51.8679C221.872 51.4394 222.144 50.855 222.3 50.1148H223.936C223.742 51.4394 223.274 52.4523 222.534 53.0366C221.794 53.6599 220.82 53.9716 219.651 53.9716C218.327 53.9716 217.275 53.5041 216.496 52.5302C215.716 51.5563 215.327 50.3486 215.327 48.9072C215.327 47.1541 215.755 45.7517 216.613 44.7777C217.47 43.8038 218.56 43.2974 219.885 43.2974C221.015 43.3363 221.95 43.609 222.651 44.1544Z" fill="#71717B"/>
<path d="M226.391 50.5432C226.43 51.0886 226.586 51.5171 226.819 51.8288C227.248 52.3742 227.988 52.6469 229.079 52.6469C229.702 52.6469 230.286 52.53 230.754 52.2573C231.221 51.9846 231.494 51.5561 231.494 51.0107C231.494 50.5822 231.299 50.2705 230.91 50.0368C230.676 49.8809 230.17 49.7251 229.429 49.5693L228.066 49.2187C227.209 48.9849 226.547 48.7901 226.157 48.5174C225.417 48.05 225.066 47.4266 225.066 46.6085C225.066 45.6736 225.417 44.8944 226.118 44.3101C226.819 43.7257 227.754 43.4141 228.923 43.4141C230.442 43.4141 231.572 43.8426 232.234 44.7386C232.663 45.284 232.858 45.9073 232.858 46.5696H231.26C231.221 46.18 231.105 45.8684 230.871 45.5567C230.481 45.1282 229.78 44.8944 228.806 44.8944C228.144 44.8944 227.676 45.0113 227.326 45.284C226.975 45.5177 226.819 45.8294 226.819 46.219C226.819 46.6475 227.014 46.9981 227.482 47.2708C227.754 47.4266 228.105 47.5825 228.611 47.6604L229.741 47.9331C230.988 48.2447 231.767 48.5174 232.195 48.7901C232.858 49.2187 233.169 49.9199 233.169 50.8159C233.169 51.7119 232.819 52.4911 232.156 53.1533C231.494 53.8156 230.442 54.1273 229.04 54.1273C227.52 54.1273 226.469 53.7766 225.845 53.1144C225.222 52.4521 224.871 51.595 224.832 50.5822H226.391V50.5432Z" fill="#71717B"/>
<path d="M26.502 16.1831L0.128113 31.3764V0.950928L26.502 16.1831Z" fill="#71717B"/>
</svg>
