<svg width="216" height="49" viewBox="0 0 216 49" fill="none" xmlns="http://www.w3.org/2000/svg">
<path d="M214.915 37.751H186.112V36.7679H214.915V37.751ZM200.563 32.2459L203.296 29.5917L204.37 30.673L201.441 33.1306C201.246 33.4256 201.051 33.9171 200.855 34.212H198.707C199.053 33.3415 199.717 32.6377 200.563 32.2459ZM191.385 15.534C191.287 15.534 189.139 16.1238 189.139 16.1238C188.638 16.3241 188.149 16.5539 187.675 16.812C187.186 17.1069 186.698 17.5984 186.698 17.8933L188.651 18.3849C188.919 18.0658 189.213 17.7699 189.53 17.5001L190.018 17.3035L191.58 15.6323C191.678 15.534 191.678 15.4357 191.336 15.534H191.385ZM204.566 20.8425C203.377 19.535 202.269 18.1562 201.246 16.7137C201.982 14.8759 202.25 12.8823 202.027 10.9137C201.629 10.1889 201.171 9.49842 200.66 8.84926C200.465 8.55434 199.586 7.57129 199.196 7.57129C199.098 7.57129 199 7.57129 199 7.66959L199.098 8.75095C197.829 9.53739 196.364 10.5204 195.095 11.5035C195.07 11.8994 195.103 12.2969 195.193 12.6832C195.398 12.8505 195.629 12.9832 195.876 13.0764C196.745 12.8651 197.625 12.7011 198.512 12.5849L196.852 15.0425L194.9 16.4188L192.556 15.6323C192.361 15.6323 192.264 15.6323 192.166 15.7306L190.408 17.5984C190.349 17.6452 190.3 17.7048 190.267 17.7728C190.233 17.8408 190.215 17.9156 190.213 17.9916L190.116 20.056V20.7442C190.083 21.5539 190.324 22.3509 190.799 23.0052L191.873 21.334C191.652 20.9678 191.488 20.5701 191.385 20.1544V18.3849L192.459 17.5984L195.388 19.6628C195.833 20.4977 196.356 21.2877 196.95 22.0222C198.252 23.1677 199.658 24.1879 201.148 25.0696C201.273 25.84 201.47 26.5969 201.734 27.3306L205.249 30.9679L203.199 33.6222C202.804 33.8319 202.47 34.1417 202.23 34.5209C201.991 34.9002 201.853 35.3358 201.832 35.7849H204.273L204.566 34.4086L207.495 31.1645C207.69 30.9679 207.69 30.8696 207.592 30.673L206.811 27.9205C207.553 27.071 207.998 26.0009 208.081 24.873C208.081 22.2188 205.444 21.5306 204.566 20.7933V20.8425ZM208.959 25.1679C208.78 24.5284 208.551 23.904 208.276 23.3001C208.276 23.3001 208.373 23.2018 208.666 23.3001C208.959 23.3984 210.424 24.4798 210.424 24.4798C211.205 25.5611 211.693 30.2798 211.693 31.951C210.838 31.5909 210.046 31.0928 209.35 30.4764L208.959 25.1679ZM134.17 24.0866C134.17 22.3171 133.584 20.9408 132.12 20.9408C130.655 20.9408 129.972 22.3171 129.972 24.0866V35.7849H131.729V37.6527H121.868V35.7849H123.723V19.6628H121.868V17.8442H129.581V20.8916H129.679C130.113 19.8713 130.834 19.0015 131.754 18.3899C132.674 17.7783 133.751 17.4519 134.854 17.451C136.07 17.3775 137.27 17.7581 138.225 18.5198C139.179 19.2816 139.822 20.3711 140.028 21.5798C140.218 22.6507 140.316 23.736 140.321 24.8238V35.834H142.665V37.7018H134.073L134.17 24.0374M94.2373 24.0374C94.2373 22.2679 93.6515 20.8916 92.187 20.8916C90.7224 20.8916 90.039 22.2679 90.039 24.0374V35.7357H91.7964V37.6035H81.9352V35.7357H83.7903V19.6628H81.9352V17.8442H89.6484V20.8916H89.7461C90.1797 19.8713 90.9011 19.0015 91.8209 18.3899C92.7407 17.7783 93.8185 17.4519 94.9208 17.451C96.1367 17.3775 97.3369 17.7581 98.2916 18.5198C99.2464 19.2816 99.8886 20.3711 100.095 21.5798C100.285 22.6507 100.383 23.736 100.388 24.8238V35.834H102.732V37.7018H94.1397L94.2373 24.0374ZM151.159 19.6137V34.2611C151.144 34.4327 151.167 34.6055 151.225 34.7674C151.284 34.9293 151.377 35.0763 151.498 35.1981C151.619 35.3199 151.765 35.4135 151.925 35.4725C152.086 35.5314 152.258 35.5541 152.428 35.5391C152.826 35.529 153.22 35.4628 153.6 35.3425V37.112C152.424 37.7152 151.108 37.987 149.792 37.8984C146.765 37.8984 144.91 36.4239 144.91 33.1798V19.6628H142.86V18.3849C145.203 16.5171 147.937 14.3543 150.085 12.5849H151.257V17.8442H154.234V19.6137H151.159ZM28.0403 7.57129C28.0403 7.57129 32.8245 12.3882 34.9725 14.8459V16.7137C32.1965 14.1565 28.5806 12.7213 24.8183 12.6832C15.9335 12.6832 10.3683 19.4662 10.3683 27.8222C10.3683 36.1781 15.6406 42.8629 24.8183 42.8629C26.7335 42.879 28.6316 42.4991 30.395 41.7466C32.1585 40.9941 33.7497 39.8851 35.0701 38.4883V40.2578C32.3363 44.0917 27.2592 46.5493 20.9129 46.5493C9.58717 46.6476 1.77631 38.39 1.77631 27.8713C1.79411 25.3645 2.3041 22.8861 3.27693 20.5785C4.24976 18.271 5.66623 16.1799 7.44481 14.4257C9.22339 12.6714 11.329 11.2887 13.6404 10.357C15.9518 9.42523 18.4234 8.96295 20.9129 8.99671C23.336 9.00423 25.7423 9.4025 28.0403 10.1764V7.57129ZM118.939 32.4425C118.415 33.0669 117.755 33.5606 117.009 33.8847C116.264 34.2087 115.454 34.3544 114.643 34.3103C112.886 34.3103 110.054 33.3272 109.957 28.7069H120.501C120.501 28.3137 120.599 27.6255 120.599 27.2323C120.599 21.6289 118.353 17.5001 112.398 17.5001C106.442 17.5001 103.415 22.1205 103.415 27.8222C103.415 33.5239 106.442 38.0459 112.398 38.0459C113.993 38.1318 115.578 37.7385 116.951 36.9159C118.325 36.0932 119.424 34.8784 120.111 33.4256L118.939 32.4425ZM109.859 26.7408C109.859 21.5306 110.25 19.5645 112.007 19.5645C113.764 19.5645 114.155 21.4323 114.253 26.7408H109.859ZM22.8656 27.7239C22.8656 21.6289 23.4514 18.9747 25.5018 18.9747C27.5521 18.9747 28.138 21.6289 28.138 27.7239C28.138 33.8188 27.5521 36.473 25.5018 36.473C23.4514 36.473 22.8656 33.8188 22.8656 27.7239ZM15.5429 27.8222C15.5429 33.8188 19.1555 38.734 25.5018 38.734C31.8481 38.734 35.4606 33.8188 35.4606 27.8222C35.4606 21.8255 31.8481 16.8611 25.5018 16.8611C19.1555 16.8611 15.5429 21.7764 15.5429 27.773M49.3249 24.0374C49.3249 22.2679 48.7391 20.8916 47.2745 20.8916C45.81 20.8916 45.1266 22.2679 45.1266 24.0374V35.7357H46.8352V37.6035H37.0228V35.7357H38.8779V19.6628H37.0228V17.8442H44.736V20.8916H44.8337C45.2673 19.8713 45.9887 19.0015 46.9085 18.3899C47.8283 17.7783 48.9061 17.4519 50.0083 17.451C51.2243 17.3775 52.4245 17.7581 53.3792 18.5198C54.334 19.2816 54.9762 20.3711 55.183 21.5798C55.373 22.6507 55.471 23.736 55.4759 24.8238V35.834H57.8192V37.7018H49.2273V24.0866L49.3249 24.0374ZM71.6835 12.5357C71.6835 14.3052 73.2456 15.4849 75.4913 15.4849C77.7369 15.4849 79.2991 14.3052 79.2991 12.5357C79.2991 10.7662 77.7369 9.58655 75.4913 9.58655C73.2456 9.58655 71.6835 10.8645 71.6835 12.5357ZM66.3135 19.6137V34.2611C66.2986 34.4327 66.3212 34.6055 66.3797 34.7674C66.4382 34.9293 66.5312 35.0763 66.6522 35.1981C66.7732 35.3199 66.9192 35.4135 67.0799 35.4725C67.2407 35.5314 67.4123 35.5541 67.5828 35.5391C67.9805 35.529 68.3749 35.4628 68.7544 35.3425V37.112C67.5788 37.7152 66.2631 37.987 64.9466 37.8984C61.9199 37.8984 60.0648 36.4239 60.0648 33.1798V19.6628H58.0145V18.3849C60.3577 16.5171 63.0915 14.3543 65.2395 12.5849H66.3623V17.8442H68.8032V19.6137H66.3135ZM181.524 35.834H183.965V37.7018H175.275V12.3882H173.127V10.5204H181.572V35.8832L181.524 35.834ZM164.828 27.8713C164.442 27.5637 163.95 27.4223 163.461 27.4781C161.606 27.4781 161.215 29.3459 161.215 31.2137C161.215 33.0815 161.801 34.5561 163.363 34.5561C163.637 34.5826 163.912 34.543 164.167 34.4403C164.422 34.3377 164.648 34.1751 164.828 33.9662V27.8713ZM165.023 35.3425C164.463 36.2057 163.695 36.9112 162.789 37.3927C161.884 37.8743 160.872 38.116 159.848 38.095C156.627 38.095 154.674 35.3425 154.674 32.0001C154.674 28.0679 157.505 25.512 161.996 25.512C162.956 25.4776 163.914 25.6106 164.828 25.9052V24.6272C164.87 24.139 164.805 23.6475 164.638 23.1872C164.471 22.7269 164.206 22.3088 163.862 21.9623C163.518 21.6158 163.103 21.3493 162.646 21.1813C162.188 21.0133 161.7 20.948 161.215 20.9899C160.334 20.9917 159.465 21.207 158.684 21.6176C157.902 22.0283 157.23 22.6222 156.724 23.3493L155.65 21.973C156.471 20.6199 157.616 19.4965 158.981 18.7062C160.346 17.916 161.887 17.4843 163.461 17.451C168.245 17.451 171.077 20.3018 171.077 24.6272V35.834H173.127V37.7018H165.121L165.023 35.3425ZM70.6095 37.7018V35.834H72.3669V19.6628H70.6095V17.8442H78.6156V35.834H80.4707V37.7018H70.6095Z" fill="#71717B"/>
</svg>
