<svg width="146" height="93" viewBox="0 0 146 93" fill="none" xmlns="http://www.w3.org/2000/svg">
<g clip-path="url(#clip0_72_193)">
<path d="M72.7479 80.7113C90.8566 80.7275 107.165 76.1708 118.264 68.8833L19.6135 62.8723C29.9246 73.5337 49.8142 80.7307 72.7479 80.7113ZM72.7479 12.2639C49.5179 12.1734 29.4037 19.5611 19.2228 30.4907L116.896 23.1224C105.941 16.394 90.1729 12.1734 72.7479 12.2639Z" fill="#71717B"/>
<path d="M72.7479 85.947C36.4329 85.8694 7.05597 68.2211 7.11132 46.391C7.05597 24.6804 36.4329 7.03208 72.7479 7.02884C94.0082 7.03208 112.97 13.1561 124.906 22.541L133.696 21.7654C120.813 9.12622 98.2961 0.749648 72.7479 0.823977C32.6204 0.749648 0.150454 21.2128 0.0788269 46.391C0.150454 71.692 32.6204 92.1551 72.7479 92.1519C99.0579 92.1551 122.154 83.2711 134.868 70.047L126.078 69.2714C114.168 79.3576 94.6854 85.8694 72.7479 85.947Z" fill="#71717B"/>
<path d="M64.348 38.4406C63.9989 36.3334 63.4762 34.2581 62.7852 32.2357L44.2273 33.5931C39.1938 44.8361 42.6547 55.3392 44.6179 59.1881L63.3713 60.3515C63.6806 59.3045 64.1364 57.275 64.5433 54.7284H51.2597C50.8332 53.0033 50.5071 51.2553 50.283 49.493H64.934C65.0089 47.6219 65.0154 45.6376 64.934 43.676H50.0877C50.2798 42.0698 50.5142 40.4701 50.8691 38.8284L64.348 38.4406ZM79.1944 31.2662L69.8177 31.8479C74.7014 44.1284 71.6507 56.955 70.4038 60.7393L87.7896 61.5149C88.1738 60.5164 88.7436 57.8631 89.1571 54.9223L81.1478 55.1162C82.206 49.2506 82.7888 40.1469 79.1944 31.2662ZM102.05 29.9089L92.0873 30.2967C98.3091 44.1284 93.2203 59.7828 92.6733 61.9028L110.645 62.8723C111.329 61.8026 111.941 58.0667 112.208 56.0857L104.199 55.6979C105.377 49.4995 106.37 39.2485 102.05 29.9089ZM15.5112 35.1443C13.4047 38.7379 12.2359 42.5158 12.1903 46.3906C12.2359 50.4141 13.421 54.2178 15.5112 57.8308L22.5437 58.0247C21.6582 56.299 20.7791 53.1125 20.3949 49.493H26.8414C27.1409 52.5534 27.9874 55.7108 29.7683 58.6064L37.5822 58.9942C31.7641 49.4833 35.9348 35.8488 37.1915 33.9809L29.1823 34.3687C28.6093 35.2929 27.2842 38.9868 26.8381 43.676H20.1996C20.3884 40.441 21.0428 37.2901 22.3484 34.7565L15.5112 35.1443ZM138.58 27.3882L113.966 28.9394C120.894 43.4207 114.992 61.599 114.357 63.0662L122.757 63.6479C123.027 62.9821 124.3 59.2786 125.101 54.1467H135.064C134.366 57.5908 133.182 60.9199 131.547 64.0357L139.361 64.4235C143.125 58.8746 145.189 52.8152 145.222 46.3906C145.189 39.6686 142.842 33.2279 138.58 27.3882ZM125.882 46.3906C126.061 42.8174 125.798 39.236 125.101 35.726H134.087C135.103 38.2499 135.913 41.947 135.845 46.3906H125.882ZM136.46 9.10645C136.865 9.1056 137.266 9.0256 137.64 8.87101C138.014 8.71643 138.353 8.49028 138.639 8.2055C138.924 7.92071 139.151 7.58286 139.305 7.21123C139.459 6.83959 139.538 6.44146 139.537 6.03956C139.536 5.63766 139.456 5.23986 139.3 4.86888C139.144 4.4979 138.916 4.161 138.629 3.87741C138.343 3.59382 138.002 3.36911 137.628 3.21609C137.253 3.06307 136.852 2.98475 136.447 2.9856C135.63 2.98732 134.846 3.3114 134.269 3.88655C133.692 4.4617 133.369 5.24081 133.371 6.05249C133.372 6.86416 133.699 7.64191 134.278 8.21464C134.858 8.78737 135.643 9.10816 136.46 9.10645ZM136.46 8.70248C134.956 8.70248 133.856 7.53907 133.856 6.03633C133.856 4.54975 134.953 3.38633 136.46 3.38633C137.958 3.38633 139.049 4.54975 139.049 6.03633C139.049 7.53907 137.958 8.70248 136.46 8.70248ZM136.958 6.17529C137.571 6.15913 138.043 5.90706 138.043 5.2381C138.043 4.67255 137.73 4.33322 136.822 4.33322H135.314V7.75236H135.738V6.17529H136.509L137.496 7.74913H138L136.958 6.17529ZM135.738 5.84243V4.63054H136.724C137.147 4.63054 137.587 4.69517 137.587 5.2284C137.587 5.92322 136.871 5.84243 136.382 5.84243H135.738Z" fill="#71717B"/>
</g>
<defs>
<clipPath id="clip0_72_193">
<rect width="145.143" height="91.3399" fill="white" transform="translate(0.0788269 0.817627)"/>
</clipPath>
</defs>
</svg>
