<svg width="215" height="40" viewBox="0 0 215 40" fill="none" xmlns="http://www.w3.org/2000/svg">
<g clip-path="url(#clip0_72_219)">
<path fill-rule="evenodd" clip-rule="evenodd" d="M17.7525 0.596021C19.9816 0.577877 22.1925 0.999202 24.2588 1.83591C26.325 2.67263 28.2062 3.90833 29.7946 5.47239C31.3831 7.03645 32.6478 8.89821 33.5164 10.9513C34.385 13.0043 34.8405 15.2084 34.8568 17.4376C34.8214 21.8684 33.0541 26.1096 29.9326 29.2544C26.8112 32.3992 22.5833 34.1982 18.1529 34.2667H17.7775V39.0964C15.792 39.0928 13.8153 38.832 11.8967 38.3206L11.2586 38.133V25.6832C12.9928 27.0006 15.0886 27.756 17.2645 27.8478H17.7525C20.5168 27.9192 23.1962 26.8895 25.2013 24.9853C27.2064 23.0811 28.3729 20.4584 28.4443 17.6941C28.5156 14.9298 27.4859 12.2504 25.5817 10.2453C23.6775 8.24021 21.0548 7.07367 18.2905 7.00233H17.7149C15.5251 7.00811 13.3897 7.68499 11.5964 8.94173L11.2586 9.19198V1.84725C13.3236 1.01987 15.5279 0.595158 17.7525 0.596021ZM145.904 9.96774C147.424 9.95978 148.928 10.271 150.32 10.8811C151.651 11.4663 152.848 12.3179 153.836 13.3836C154.831 14.4805 155.612 15.7536 156.139 17.1373C156.709 18.5747 156.997 20.108 156.99 21.6542C156.995 23.2205 156.706 24.774 156.139 26.2338C155.611 27.6169 154.83 28.8898 153.836 29.9874C152.848 31.0531 151.651 31.9048 150.32 32.4899C148.928 33.1001 147.424 33.4113 145.904 33.4033C144.368 33.4266 142.854 33.0331 141.524 32.2647C140.282 31.5724 139.199 30.6259 138.346 29.487V39.0839H134.68V10.5308H138.271V14.0968C139.111 12.9088 140.2 11.9182 141.462 11.194C142.802 10.3868 144.339 9.9627 145.904 9.96774ZM104.1 9.96774C105.543 9.96607 106.97 10.2643 108.292 10.8436C109.652 11.4221 110.878 12.2738 111.895 13.3461C112.978 14.5031 113.828 15.8583 114.398 17.3375C115.039 19.0446 115.353 20.857 115.324 22.6803H96.6426C96.7368 23.762 97.0384 24.8156 97.531 25.7833C97.9709 26.6647 98.5689 27.4578 99.2952 28.1231C100.66 29.3796 102.445 30.0803 104.3 30.0875C105.689 30.1519 107.064 29.7911 108.242 29.0534C109.421 28.3156 110.346 27.2359 110.894 25.9585H114.773C114.126 28.1798 112.762 30.1245 110.894 31.4889C109.27 32.5509 107.411 33.1996 105.479 33.3784C103.546 33.5573 101.6 33.2608 99.8083 32.5149C98.4602 31.9152 97.2375 31.0662 96.2047 30.0125C95.1693 28.9493 94.3493 27.6959 93.7898 26.3213C92.6257 23.3707 92.6257 20.088 93.7898 17.1373C94.3479 15.7464 95.1629 14.4729 96.1922 13.3836C97.1992 12.3335 98.3966 11.4843 99.7207 10.8811C101.095 10.2575 102.591 9.94556 104.1 9.96774ZM181.351 9.96774C182.794 9.96607 184.221 10.2643 185.543 10.8436C186.903 11.4221 188.129 12.2738 189.146 13.3461C190.23 14.5025 191.08 15.8579 191.649 17.3375C192.3 19.0421 192.619 20.8557 192.587 22.6803H173.894C173.988 23.762 174.289 24.8156 174.782 25.7833C175.222 26.6647 175.82 27.4578 176.546 28.1231C177.911 29.3796 179.696 30.0803 181.551 30.0875C182.94 30.1519 184.315 29.7911 185.493 29.0534C186.672 28.3156 187.597 27.2359 188.145 25.9585H192.074C191.427 28.1798 190.064 30.1245 188.195 31.4889C186.571 32.5509 184.712 33.1996 182.78 33.3784C180.847 33.5573 178.901 33.2608 177.109 32.5149C175.761 31.9152 174.539 31.0662 173.506 30.0125C172.47 28.9493 171.65 27.6959 171.091 26.3213C170.209 24.1656 169.966 21.8014 170.392 19.5115C170.818 17.2216 171.895 15.1028 173.493 13.4086C174.5 12.3585 175.698 11.5093 177.022 10.9062C178.379 10.2811 179.857 9.96077 181.351 9.96774ZM85.3065 5.76361V10.5308H90.3114V14.0468H85.3065V24.7323C85.282 25.5608 85.4223 26.3859 85.7194 27.1597C85.9581 27.7494 86.3462 28.2668 86.8455 28.6611C87.3287 29.0155 87.8841 29.259 88.4721 29.3743C89.1185 29.5032 89.7803 29.5369 90.4365 29.4744V32.8653C89.2451 33.02 88.0351 32.9478 86.8705 32.6526C85.842 32.3898 84.8956 31.8736 84.1178 31.1511C83.3251 30.4016 82.7133 29.4817 82.3285 28.4609C81.8734 27.2629 81.6525 25.9886 81.6779 24.7073V14.0468H78.6624V10.5308H81.6779V5.76361H85.3065ZM49.9342 2.76065V32.8903H46.2681V2.76065H49.9342ZM66.7507 9.96774C67.9956 9.94841 69.2311 10.187 70.3793 10.6684C71.4121 11.1073 72.3318 11.7747 73.0694 12.6204C73.8233 13.4925 74.3897 14.5104 74.7336 15.6108C75.1203 16.8498 75.3103 18.1417 75.2966 19.4396V32.8903H71.668V19.3645C71.7278 17.8205 71.2404 16.3049 70.2917 15.0853C69.7864 14.5186 69.1589 14.0742 68.4565 13.7859C67.7542 13.4976 66.9954 13.3729 66.2377 13.4211C65.4395 13.4131 64.648 13.5664 63.9104 13.8716C63.2165 14.1691 62.5843 14.5934 62.0461 15.1228C61.5095 15.6503 61.084 16.28 60.7948 16.9746C60.4988 17.7101 60.35 18.4966 60.3569 19.2894V32.8903H56.7409V10.5308H60.2818V13.0333C61.0315 12.1039 61.9809 11.3555 63.0596 10.8436C64.2066 10.2726 65.4695 9.97293 66.7507 9.96774ZM130.564 9.96774V13.6088C129.65 13.5553 128.734 13.6439 127.848 13.8716C127.025 14.0889 126.254 14.4721 125.584 14.9977C124.921 15.5388 124.391 16.2234 124.032 16.9997C123.621 17.911 123.42 18.9031 123.444 19.9025V32.8903H119.803V10.5308H123.344V13.0333C123.754 12.4401 124.257 11.9163 124.833 11.4817C125.388 11.068 125.999 10.7352 126.647 10.4933C127.283 10.2461 127.947 10.078 128.624 9.99277C129.277 9.9134 129.938 9.92182 130.589 10.0178L130.564 9.96774ZM165.435 0.596021V32.8903H161.769V0.596021H165.435ZM199.219 10.5308L204.399 18.5262L209.566 10.5308H214.058L206.551 21.3414L214.534 32.8903H210.054L204.361 24.1317L198.668 32.8903H194.176L202.084 21.3414L194.677 10.5308H199.219ZM7.14204 4.21208V30.6256C5.11738 29.069 3.47751 27.068 2.34904 24.7771C1.22056 22.4861 0.633667 19.9664 0.633667 17.4126C0.633667 14.8587 1.22056 12.3391 2.34904 10.0481C3.47751 7.75711 5.11738 5.7561 7.14204 4.19957V4.21208ZM145.904 13.3586C144.895 13.3492 143.897 13.5718 142.988 14.0092C142.086 14.4445 141.275 15.0475 140.598 15.786C139.894 16.562 139.338 17.4612 138.959 18.4386C138.552 19.4616 138.344 20.5531 138.346 21.6542C138.343 23.8369 139.145 25.944 140.598 27.5726C141.271 28.3224 142.082 28.9343 142.988 29.3743C143.898 29.8026 144.892 30.0247 145.897 30.0247C146.903 30.0247 147.896 29.8026 148.806 29.3743C149.707 28.9432 150.508 28.3296 151.159 27.5726C151.837 26.7839 152.371 25.8817 152.735 24.9074C153.13 23.8684 153.329 22.7656 153.323 21.6542C153.328 20.5552 153.128 19.4649 152.735 18.4386C152.374 17.4668 151.84 16.5682 151.159 15.786C150.504 15.0401 149.703 14.4355 148.806 14.0092C147.902 13.5719 146.908 13.3493 145.904 13.3586ZM18.278 9.84262C18.278 9.84262 18.278 9.84262 18.3531 9.84262L18.5783 11.0939H18.8661H19.1539L19.7795 10.0178C19.7795 10.0178 19.7795 10.0178 19.8546 10.0178L20.8055 10.3681C20.8153 10.3636 20.826 10.3613 20.8368 10.3613C20.8476 10.3613 20.8582 10.3636 20.8681 10.3681V10.6059L20.6553 11.8571L20.9056 12.0073L21.1558 12.1574L22.1318 11.3566H22.2069L22.9826 12.0073C22.9882 12.019 22.9911 12.0318 22.9911 12.0448C22.9911 12.0578 22.9882 12.0706 22.9826 12.0823L22.3445 13.1709L22.5322 13.3836L22.7199 13.6088L24.0337 13.1083H24.1213L24.6217 13.9842V14.0593L23.6583 14.8601L23.7709 15.1353L23.8585 15.4106H25.1097H25.1848L25.36 16.3991V16.4741L24.1713 16.8996C24.1775 16.9996 24.1775 17.0999 24.1713 17.1999V17.3375V17.4751L25.36 17.9006L25.4225 17.9631L25.2474 18.9516H23.9961L23.896 19.2269L23.7959 19.5021L24.7469 20.2904C24.7524 20.3021 24.7553 20.315 24.7553 20.3279C24.7553 20.3409 24.7524 20.3537 24.7469 20.3655L24.2464 21.2288C24.2464 21.2288 24.2464 21.2288 24.1713 21.2288L22.9951 20.8159L22.8075 21.0411L22.6073 21.2539L23.2329 22.3299C23.242 22.3427 23.247 22.358 23.247 22.3737C23.247 22.3894 23.242 22.4047 23.2329 22.4175L22.4571 23.0556C22.4289 23.0662 22.3978 23.0662 22.3695 23.0556L21.4061 22.2673L21.1558 22.4175L20.8931 22.5551L21.1058 23.8064V23.8814L20.1549 24.2193C20.1412 24.2259 20.1262 24.2294 20.1111 24.2294C20.0959 24.2294 20.0809 24.2259 20.0673 24.2193L19.4291 23.1557L19.1414 23.2183H18.8536L18.6283 24.4695C18.6339 24.4812 18.6368 24.4941 18.6368 24.5071C18.6368 24.52 18.6339 24.5329 18.6283 24.5446H17.5648C17.5531 24.5502 17.5402 24.553 17.5273 24.553C17.5143 24.553 17.5015 24.5502 17.4897 24.5446L17.2645 23.2934H16.9767L16.6764 23.2308L16.0508 24.2943C16.0413 24.2998 16.0305 24.3027 16.0195 24.3027C16.0085 24.3027 15.9978 24.2998 15.9882 24.2943L14.6369 24.3694L14.8496 23.1182L14.5869 22.9805L14.3366 22.8304L13.3732 23.6187H13.2981L12.5223 22.9805C12.5165 22.9667 12.5135 22.9518 12.5135 22.9368C12.5135 22.9217 12.5165 22.9068 12.5223 22.893L13.148 21.8169L12.9603 21.6042L12.7726 21.379L11.5964 21.7919C11.5828 21.7985 11.5678 21.802 11.5526 21.802C11.5375 21.802 11.5225 21.7985 11.5088 21.7919L10.9958 20.9285C10.99 20.9147 10.987 20.8998 10.987 20.8847C10.987 20.8697 10.99 20.8548 10.9958 20.8409L11.9593 20.0527L11.8592 19.7774L11.6215 19.3645H10.3702C10.3564 19.3703 10.3415 19.3734 10.3264 19.3734C10.3114 19.3734 10.2965 19.3703 10.2826 19.3645L10.1075 18.376C10.0983 18.3633 10.0934 18.3479 10.0934 18.3322C10.0934 18.3165 10.0983 18.3012 10.1075 18.2884L11.2836 17.863V17.4376V17.2874L10.0324 16.862C10.0121 16.8687 9.99014 16.8687 9.96983 16.862L10.2701 15.6108C10.2646 15.5991 10.2617 15.5862 10.2617 15.5733C10.2617 15.5603 10.2646 15.5475 10.2701 15.5357H11.5214L11.6215 15.2605L11.8967 14.9852L10.9333 14.1844C10.9267 14.173 10.9232 14.16 10.9232 14.1469C10.9232 14.1337 10.9267 14.1207 10.9333 14.1093L11.4463 13.2335C11.4463 13.2335 11.4463 13.2335 11.5214 13.2335L12.7726 13.6589L12.9478 13.4337L13.0353 13.1083L12.3972 12.0698C12.3906 12.0562 12.3871 12.0412 12.3871 12.026C12.3871 12.0108 12.3906 11.9959 12.3972 11.9822L13.148 11.2941C13.1618 11.2882 13.1767 11.2852 13.1917 11.2852C13.2068 11.2852 13.2217 11.2882 13.2355 11.2941L14.2115 12.1074L14.4617 11.9572L14.712 11.8071L14.4993 10.5558C14.4937 10.5441 14.4908 10.5313 14.4908 10.5183C14.4908 10.5053 14.4937 10.4925 14.4993 10.4807L15.6504 10.1304C15.6643 10.1246 15.6792 10.1215 15.6942 10.1215C15.7093 10.1215 15.7241 10.1246 15.738 10.1304L16.3761 11.2065H16.6639H16.9517L17.1769 9.95523C17.1714 9.9435 17.1685 9.93068 17.1685 9.9177C17.1685 9.90471 17.1714 9.89189 17.1769 9.88016H18.2405L18.278 9.84262ZM17.765 12.6704C16.8279 12.6852 15.9162 12.9766 15.1442 13.508C14.3722 14.0393 13.7745 14.787 13.4261 15.657C13.0778 16.527 12.9942 17.4805 13.1861 18.3978C13.3779 19.3152 13.8366 20.1553 14.5044 20.8128C15.1723 21.4703 16.0195 21.9157 16.9397 22.0931C17.86 22.2706 18.8121 22.1722 19.6765 21.8102C20.541 21.4482 21.2792 20.8389 21.7984 20.0587C22.3176 19.2785 22.5946 18.3622 22.5948 17.4251C22.5898 16.7947 22.4606 16.1715 22.2145 15.5911C21.9683 15.0107 21.61 14.4846 21.1602 14.043C20.7104 13.6013 20.1779 13.2527 19.5931 13.0172C19.0083 12.7816 18.3829 12.6638 17.7525 12.6704H17.765ZM17.765 14.9852C18.2626 14.9853 18.7488 15.1338 19.1616 15.4117C19.5743 15.6895 19.8949 16.0841 20.0824 16.545C20.2698 17.0059 20.3155 17.5123 20.2138 17.9993C20.1121 18.4864 19.8674 18.9321 19.5112 19.2794C19.1549 19.6268 18.7032 19.86 18.2137 19.9494C17.7242 20.0388 17.2192 19.9802 16.7632 19.7812C16.3072 19.5821 15.9208 19.2517 15.6535 18.832C15.3862 18.4123 15.2501 17.9225 15.2625 17.4251C15.2788 16.7745 15.5479 16.1558 16.0128 15.7002C16.4776 15.2447 17.1017 14.9882 17.7525 14.9852H17.765ZM181.364 13.3085C180.578 13.3108 179.799 13.4505 179.061 13.7214C178.29 14.0155 177.575 14.4386 176.947 14.9727C176.271 15.5067 175.684 16.1444 175.207 16.862C174.704 17.6294 174.332 18.4751 174.106 19.3645H188.521C188.296 18.481 187.937 17.637 187.457 16.862C187.008 16.1575 186.456 15.5247 185.818 14.9852C185.201 14.4483 184.493 14.0247 183.728 13.734C182.969 13.447 182.163 13.3028 181.351 13.3085H181.364ZM104.112 13.3085C103.327 13.3108 102.548 13.4505 101.81 13.7214C101.039 14.0155 100.324 14.4386 99.6956 14.9727C99.0198 15.5067 98.4328 16.1444 97.9564 16.862C97.4533 17.6294 97.0812 18.4751 96.8553 19.3645H111.27C111.045 18.481 110.686 17.637 110.206 16.862C109.754 16.1411 109.198 15.4916 108.554 14.9351C107.931 14.4005 107.22 13.9773 106.452 13.6839C105.697 13.417 104.9 13.2898 104.1 13.3085H104.112Z" fill="#71717B"/>
</g>
<defs>
<clipPath id="clip0_72_219">
<rect width="213.886" height="38.5004" fill="white" transform="translate(0.635498 0.595947)"/>
</clipPath>
</defs>
</svg>
