<?xml version="1.0" encoding="UTF-8"?>
<svg id="Capa_2" data-name="Capa 2" xmlns="http://www.w3.org/2000/svg" viewBox="0 0 118.56 153.63">
  <defs>
    <style>
      .cls-1 {
        fill: #71727c;
      }

      .cls-2 {
        fill: #9f9fa1;
      }

      .cls-3 {
        fill: #a2a3a8;
      }
    </style>
  </defs>
  <g id="Capa_1-2" data-name="Capa 1">
    <g>
      <circle class="cls-1" cx="30.7" cy="23.4" r="3.82"/>
      <circle class="cls-1" cx="40.27" cy="23.4" r="3.82"/>
      <circle class="cls-1" cx="49.85" cy="23.4" r="3.82"/>
      <circle class="cls-1" cx="59.42" cy="23.4" r="3.82"/>
      <circle class="cls-1" cx="69" cy="23.4" r="3.82"/>
      <circle class="cls-1" cx="78.57" cy="23.4" r="3.82"/>
      <circle class="cls-1" cx="88.15" cy="23.4" r="3.82"/>
      <circle class="cls-1" cx="97.72" cy="23.4" r="3.82"/>
      <circle class="cls-1" cx="21.13" cy="32.86" r="3.82"/>
      <circle class="cls-1" cx="30.7" cy="32.86" r="3.82"/>
      <circle class="cls-1" cx="40.27" cy="32.86" r="3.82"/>
      <circle class="cls-1" cx="49.85" cy="32.86" r="3.82"/>
      <circle class="cls-1" cx="59.42" cy="32.86" r="3.82"/>
      <circle class="cls-1" cx="69" cy="32.86" r="3.82"/>
      <circle class="cls-1" cx="78.57" cy="32.86" r="3.82"/>
      <circle class="cls-1" cx="88.15" cy="32.86" r="3.82"/>
      <circle class="cls-1" cx="97.72" cy="32.86" r="3.82"/>
      <circle class="cls-1" cx="21.13" cy="42.33" r="3.82"/>
      <circle class="cls-1" cx="30.7" cy="42.33" r="3.82"/>
      <circle class="cls-3" cx="88.15" cy="42.33" r="3.82"/>
      <circle class="cls-3" cx="97.72" cy="42.33" r="3.82"/>
      <circle class="cls-1" cx="21.13" cy="51.8" r="3.82"/>
      <circle class="cls-1" cx="30.7" cy="51.8" r="3.82"/>
      <circle class="cls-1" cx="40.27" cy="51.8" r="3.82"/>
      <circle class="cls-1" cx="49.85" cy="51.8" r="3.82"/>
      <circle class="cls-1" cx="59.42" cy="51.8" r="3.82"/>
      <circle class="cls-1" cx="69" cy="51.8" r="3.82"/>
      <circle class="cls-1" cx="78.57" cy="51.8" r="3.82"/>
      <circle class="cls-1" cx="88.15" cy="51.8" r="3.82"/>
      <circle class="cls-1" cx="97.72" cy="51.8" r="3.82"/>
      <circle class="cls-1" cx="21.13" cy="61.26" r="3.82"/>
      <circle class="cls-1" cx="30.7" cy="61.26" r="3.82"/>
      <circle class="cls-1" cx="40.27" cy="61.26" r="3.82"/>
      <circle class="cls-1" cx="49.85" cy="61.26" r="3.82"/>
      <circle class="cls-1" cx="59.42" cy="61.26" r="3.82"/>
      <circle class="cls-1" cx="69" cy="61.26" r="3.82"/>
      <circle class="cls-1" cx="78.57" cy="61.26" r="3.82"/>
      <circle class="cls-1" cx="88.15" cy="61.26" r="3.82"/>
      <circle class="cls-1" cx="97.72" cy="61.26" r="3.82"/>
      <circle class="cls-1" cx="30.7" cy="70.73" r="3.82"/>
      <circle class="cls-1" cx="40.27" cy="70.73" r="3.82"/>
      <circle class="cls-1" cx="49.85" cy="70.73" r="3.82"/>
      <circle class="cls-1" cx="59.42" cy="70.73" r="3.82"/>
      <circle class="cls-1" cx="69" cy="70.73" r="3.82"/>
      <circle class="cls-1" cx="78.57" cy="70.73" r="3.82"/>
      <circle class="cls-1" cx="88.15" cy="70.73" r="3.82"/>
      <circle class="cls-1" cx="97.72" cy="70.73" r="3.82"/>
      <circle class="cls-1" cx="88.15" cy="80.19" r="3.82"/>
      <circle class="cls-1" cx="97.72" cy="80.19" r="3.82"/>
      <circle class="cls-2" cx="21.13" cy="89.66" r="3.82"/>
      <circle class="cls-2" cx="11.77" cy="89.66" r="3.82"/>
      <circle class="cls-2" cx="11.77" cy="99.12" r="3.23"/>
      <circle class="cls-2" cx="11.77" cy="108.73" r="2.64"/>
      <circle class="cls-2" cx="11.77" cy="117.56" r="2.04"/>
      <circle class="cls-2" cx="11.77" cy="123.98" r="1.45"/>
      <circle class="cls-2" cx="11.77" cy="130.74" r=".86"/>
      <circle class="cls-2" cx="21.13" cy="117.56" r="2.04"/>
      <circle class="cls-2" cx="21.13" cy="123.98" r="1.45"/>
      <circle class="cls-2" cx="21.13" cy="130.74" r=".86"/>
      <circle class="cls-2" cx="30.7" cy="117.56" r="2.04"/>
      <circle class="cls-2" cx="30.7" cy="123.98" r="1.45"/>
      <circle class="cls-2" cx="30.7" cy="130.74" r=".86"/>
      <circle class="cls-2" cx="40.27" cy="117.56" r="2.04"/>
      <circle class="cls-2" cx="40.27" cy="123.98" r="1.45"/>
      <circle class="cls-2" cx="40.27" cy="130.74" r=".86"/>
      <circle class="cls-2" cx="49.85" cy="117.56" r="2.04"/>
      <circle class="cls-2" cx="49.85" cy="123.98" r="1.45"/>
      <circle class="cls-2" cx="49.85" cy="130.74" r=".86"/>
      <circle class="cls-2" cx="59.42" cy="117.56" r="2.04"/>
      <circle class="cls-2" cx="59.42" cy="123.98" r="1.45"/>
      <circle class="cls-2" cx="59.42" cy="130.74" r=".86"/>
      <circle class="cls-2" cx="69" cy="117.56" r="2.04"/>
      <circle class="cls-2" cx="69" cy="123.98" r="1.45"/>
      <circle class="cls-2" cx="69" cy="130.74" r=".86"/>
      <circle class="cls-2" cx="78.57" cy="117.56" r="2.04"/>
      <circle class="cls-2" cx="78.57" cy="123.98" r="1.45"/>
      <circle class="cls-2" cx="78.57" cy="130.74" r=".86"/>
      <circle class="cls-2" cx="88.15" cy="117.56" r="2.04"/>
      <circle class="cls-2" cx="88.15" cy="123.98" r="1.45"/>
      <circle class="cls-2" cx="88.15" cy="130.74" r=".86"/>
      <circle class="cls-2" cx="97.72" cy="117.56" r="2.04"/>
      <circle class="cls-2" cx="97.72" cy="123.98" r="1.45"/>
      <circle class="cls-2" cx="97.72" cy="130.74" r=".86"/>
      <circle class="cls-2" cx="107.29" cy="117.56" r="2.04"/>
      <circle class="cls-2" cx="107.29" cy="123.98" r="1.45"/>
      <circle class="cls-2" cx="107.29" cy="130.74" r=".86"/>
      <circle class="cls-2" cx="107.29" cy="14.05" r="2.04"/>
      <g>
        <circle class="cls-2" cx="107.29" cy="61.26" r="3.82"/>
        <circle class="cls-2" cx="107.29" cy="51.8" r="3.52"/>
        <circle class="cls-2" cx="107.29" cy="42.33" r="3.21"/>
        <circle class="cls-2" cx="107.29" cy="32.86" r="2.91"/>
        <circle class="cls-2" cx="107.29" cy="23.4" r="2.6"/>
      </g>
      <g>
        <circle class="cls-2" cx="107.29" cy="70.41" r="3.82"/>
        <circle class="cls-2" cx="107.29" cy="79.87" r="3.52"/>
        <circle class="cls-2" cx="107.29" cy="89.34" r="3.21"/>
        <circle class="cls-2" cx="107.29" cy="98.81" r="2.91"/>
        <circle class="cls-2" cx="107.29" cy="108.27" r="2.6"/>
      </g>
      <circle class="cls-2" cx="107.29" cy="7.63" r="1.45"/>
      <circle class="cls-2" cx="107.29" cy=".86" r=".86"/>
      <circle class="cls-2" cx="97.72" cy="14.05" r="2.04"/>
      <circle class="cls-2" cx="97.72" cy="7.63" r="1.45"/>
      <circle class="cls-2" cx="97.72" cy=".86" r=".86"/>
      <circle class="cls-2" cx="88.15" cy="14.05" r="2.04"/>
      <circle class="cls-2" cx="88.15" cy="7.63" r="1.45"/>
      <circle class="cls-2" cx="88.15" cy=".86" r=".86"/>
      <circle class="cls-2" cx="30.7" cy="89.66" r="3.82"/>
      <circle class="cls-1" cx="88.15" cy="89.66" r="3.82"/>
      <circle class="cls-1" cx="97.72" cy="89.66" r="3.82"/>
      <circle class="cls-1" cx="21.13" cy="99.12" r="3.82"/>
      <circle class="cls-1" cx="30.7" cy="99.12" r="3.82"/>
      <circle class="cls-1" cx="40.27" cy="99.12" r="3.82"/>
      <circle class="cls-1" cx="49.85" cy="99.12" r="3.82"/>
      <circle class="cls-1" cx="59.42" cy="99.12" r="3.82"/>
      <circle class="cls-1" cx="69" cy="99.12" r="3.82"/>
      <circle class="cls-1" cx="78.57" cy="99.12" r="3.82"/>
      <circle class="cls-1" cx="88.15" cy="99.12" r="3.82"/>
      <circle class="cls-1" cx="97.72" cy="99.12" r="3.82"/>
      <circle class="cls-1" cx="21.13" cy="108.59" r="3.82"/>
      <circle class="cls-1" cx="30.7" cy="108.59" r="3.82"/>
      <circle class="cls-1" cx="40.27" cy="108.59" r="3.82"/>
      <circle class="cls-1" cx="49.85" cy="108.59" r="3.82"/>
      <circle class="cls-1" cx="59.42" cy="108.59" r="3.82"/>
      <circle class="cls-1" cx="69" cy="108.59" r="3.82"/>
      <circle class="cls-1" cx="78.57" cy="108.59" r="3.82"/>
      <circle class="cls-1" cx="88.15" cy="108.59" r="3.82"/>
      <circle class="cls-1" cx="97.72" cy="108.59" r="3.82"/>
      <g>
        <path class="cls-1" d="M0,149.85l2.32-.2c.05.52.15.91.31,1.19.25.44.61.66,1.08.66.35,0,.62-.11.81-.34.19-.22.28-.49.28-.78s-.09-.53-.27-.76c-.18-.22-.6-.43-1.25-.63-1.07-.33-1.83-.77-2.29-1.32-.46-.55-.69-1.25-.69-2.1,0-.56.12-1.08.35-1.58s.59-.89,1.06-1.17c.47-.28,1.12-.43,1.94-.43,1.01,0,1.78.26,2.31.77s.85,1.34.95,2.46l-2.3.19c-.06-.49-.19-.84-.39-1.07s-.47-.33-.81-.33c-.28,0-.5.08-.64.25-.14.17-.22.37-.22.6,0,.17.06.33.18.47.11.14.39.28.82.4,1.07.32,1.83.64,2.29.96s.8.72,1.01,1.2c.21.48.32,1.01.32,1.61,0,.7-.14,1.34-.42,1.92-.28.59-.67,1.03-1.18,1.34-.5.3-1.14.46-1.9.46-1.34,0-2.27-.36-2.79-1.07s-.81-1.62-.88-2.71Z"/>
        <path class="cls-1" d="M13.26,151.65h-2.77l-.39,1.79h-2.49l2.97-10.86h2.66l2.97,10.86h-2.56l-.4-1.79ZM12.75,149.3l-.87-3.9-.86,3.9h1.74Z"/>
        <path class="cls-1" d="M17,142.59h2.28l2.98,6.01v-6.01h2.3v10.86h-2.3l-2.96-5.96v5.96h-2.3v-10.86Z"/>
        <path class="cls-1" d="M26.28,142.59h2.45v10.86h-2.45v-10.86Z"/>
        <path class="cls-1" d="M30.46,142.59h3.21l1.24,6.61,1.23-6.61h3.21v10.86h-2v-8.28l-1.54,8.28h-1.81l-1.54-8.28v8.28h-2v-10.86Z"/>
        <path class="cls-1" d="M41,142.59h2.45v10.86h-2.45v-10.86Z"/>
        <path class="cls-1" d="M48.46,149.85l2.32-.2c.05.52.15.91.31,1.19.25.44.61.66,1.08.66.35,0,.62-.11.81-.34.19-.22.28-.49.28-.78s-.09-.53-.27-.76c-.18-.22-.6-.43-1.25-.63-1.07-.33-1.83-.77-2.29-1.32-.46-.55-.69-1.25-.69-2.1,0-.56.12-1.08.35-1.58s.59-.89,1.06-1.17c.47-.28,1.12-.43,1.94-.43,1.01,0,1.78.26,2.31.77s.85,1.34.95,2.46l-2.3.19c-.06-.49-.19-.84-.39-1.07s-.47-.33-.81-.33c-.28,0-.5.08-.64.25-.14.17-.22.37-.22.6,0,.17.06.33.18.47.11.14.39.28.82.4,1.07.32,1.83.64,2.29.96s.8.72,1.01,1.2c.21.48.32,1.01.32,1.61,0,.7-.14,1.34-.42,1.92-.28.59-.67,1.03-1.18,1.34-.5.3-1.14.46-1.9.46-1.34,0-2.27-.36-2.79-1.07s-.81-1.62-.88-2.71Z"/>
        <path class="cls-1" d="M56.72,150.42h2.35v3.02h-2.35v-3.02Z"/>
        <path class="cls-1" d="M65.39,151.65h-2.77l-.39,1.79h-2.49l2.97-10.86h2.66l2.97,10.86h-2.56l-.4-1.79ZM64.89,149.3l-.87-3.9-.86,3.9h1.74Z"/>
        <path class="cls-1" d="M68.98,150.42h2.34v3.02h-2.34v-3.02Z"/>
        <path class="cls-1" d="M76.51,142.59h3.63c.71,0,1.29.13,1.73.4.44.27.8.65,1.09,1.15.29.5.5,1.08.62,1.74.13.66.19,1.36.19,2.1,0,1.16-.1,2.06-.29,2.7-.19.64-.46,1.17-.8,1.61-.34.43-.71.72-1.1.86-.54.2-1.02.3-1.46.3h-3.63v-10.86ZM78.96,145.05v5.93h.6c.51,0,.87-.08,1.09-.23s.38-.43.51-.81.18-1.02.18-1.88c0-1.15-.14-1.94-.41-2.36s-.73-.64-1.36-.64h-.61Z"/>
        <path class="cls-1" d="M85.06,142.59h6.54v2.32h-4.1v1.73h3.8v2.21h-3.8v2.14h4.22v2.46h-6.66v-10.86Z"/>
        <path class="cls-1" d="M101.99,149l2.14.89c-.14.82-.37,1.51-.68,2.07-.31.55-.69.97-1.15,1.25-.46.28-1.04.42-1.75.42-.86,0-1.56-.17-2.11-.51-.54-.34-1.01-.95-1.41-1.81s-.59-1.97-.59-3.32c0-1.8.35-3.18,1.04-4.14s1.68-1.45,2.95-1.45c1,0,1.78.28,2.35.83.57.55.99,1.4,1.27,2.55l-2.16.66c-.08-.33-.15-.57-.24-.73-.14-.26-.3-.45-.5-.59-.2-.14-.42-.21-.66-.21-.55,0-.98.31-1.27.92-.22.45-.33,1.17-.33,2.14,0,1.2.13,2.03.4,2.47.27.45.64.67,1.12.67s.82-.18,1.06-.54c.24-.36.41-.88.52-1.57Z"/>
        <path class="cls-1" d="M105.36,150.42h2.34v3.02h-2.34v-3.02Z"/>
        <path class="cls-1" d="M108.4,142.59h2.55l1.78,7.81,1.76-7.81h2.48l-2.94,10.86h-2.65l-2.99-10.86Z"/>
        <path class="cls-1" d="M116.22,150.42h2.34v3.02h-2.34v-3.02Z"/>
      </g>
    </g>
  </g>
</svg>