<svg width="156" height="130" viewBox="0 0 156 130" fill="none" xmlns="http://www.w3.org/2000/svg">
<g clip-path="url(#clip0_72_224)">
<path d="M24.0306 50.5382C33.804 53.565 50.2376 61.1011 47.1596 63.5623C44.2943 65.8571 29.8388 60.1364 17.8345 56.2376C6.52212 52.5627 -0.315857 50.009 0.504951 48.0746C1.32701 46.1402 12.3791 46.9322 24.0306 50.5382ZM41.8093 41.9973C34.5259 36.9136 29.4397 31.5308 30.4507 29.9743C31.4604 28.419 38.1845 31.2793 45.4679 36.3618C52.7514 41.4468 57.8376 46.8283 56.8279 48.3849C55.8181 49.9402 49.0928 47.0811 41.8093 41.9973ZM62.8325 17.8849C68.9486 27.4405 70.8617 39.0569 69.1963 37.7757C65.7004 35.0855 61.1121 28.9695 54.423 18.2652C48.1193 8.18031 44.5233 1.82781 46.3964 0.873116C48.2682 -0.0803228 56.2586 7.61225 62.8325 17.8849ZM80.3698 17.7397C79.2337 10.6215 79.9131 4.54048 81.8926 4.1551C83.872 3.77097 86.3995 9.22884 87.5381 16.3471C88.6742 23.4654 87.9948 29.5476 86.0154 29.9317C84.0359 30.3158 81.5084 24.858 80.3698 17.7397ZM56.5676 90.8755C48.0029 75.4253 57.4485 53.8177 77.6646 42.6117C83.5242 39.3635 91.2855 36.8923 97.2352 36.0415C85.7676 42.7293 72.6772 54.7949 68.9486 71.0172C68.9486 71.0172 66.9428 79.6169 69.7931 85.2962C74.4615 94.5979 88.2275 96.6186 99.7013 90.2598C111.174 83.9011 116.384 71.3675 111.34 62.2673C107.015 54.4646 96.5532 51.7182 86.4283 55.1015C87.5444 52.6829 92.0863 43.7065 101.192 36.034C113.547 35.7837 124.483 40.7436 129.777 50.2943C138.342 65.7432 128.896 87.3507 108.68 98.558C88.464 109.765 65.1323 106.324 56.5676 90.8755ZM29.2908 82.5585C21.4443 83.6746 14.8929 83.4982 14.6589 82.1669C14.4236 80.8368 20.5935 78.8549 28.4399 77.7375C36.2877 76.6227 42.8379 76.7991 43.0731 78.1279C43.3083 79.4605 37.1373 81.4449 29.2908 82.5585Z" fill="#71717B"/>
<path d="M142.618 119.721C142.448 118.632 141.808 118.089 140.693 118.089C140.276 118.089 139.928 118.186 139.647 118.383C139.365 118.565 139.134 118.811 138.95 119.116C138.778 119.41 138.656 119.739 138.583 120.107C138.508 120.461 138.473 120.815 138.473 121.173C138.473 121.513 138.508 121.862 138.583 122.216C138.656 122.57 138.771 122.898 138.93 123.19C139.101 123.473 139.328 123.703 139.609 123.888C139.892 124.071 140.232 124.163 140.637 124.163C141.26 124.163 141.736 123.991 142.068 123.649C142.41 123.295 142.625 122.823 142.711 122.236H145.225C145.053 123.496 144.564 124.455 143.757 125.117C142.95 125.779 141.914 126.108 140.655 126.108C139.947 126.108 139.291 125.991 138.692 125.759C138.104 125.515 137.604 125.179 137.188 124.75C136.773 124.322 136.449 123.814 136.216 123.227C135.983 122.628 135.867 121.974 135.867 121.264C135.867 120.531 135.972 119.85 136.18 119.227C136.4 118.592 136.719 118.049 137.134 117.593C137.55 117.13 138.056 116.768 138.657 116.512C139.258 116.255 139.941 116.127 140.714 116.127C141.275 116.127 141.814 116.199 142.327 116.347C142.852 116.493 143.319 116.72 143.722 117.025C144.137 117.319 144.475 117.693 144.732 118.144C144.988 118.587 145.135 119.112 145.172 119.723L142.618 119.721ZM127.778 121.76C127.811 122.603 128.027 123.214 128.418 123.594C128.81 123.973 129.374 124.163 130.107 124.163C130.634 124.163 131.086 124.034 131.465 123.778C131.845 123.506 132.077 123.227 132.163 122.932H134.455C134.091 124.071 133.527 124.883 132.768 125.373C132.012 125.862 131.092 126.106 130.017 126.106C129.269 126.106 128.597 125.99 127.997 125.757C127.398 125.513 126.892 125.171 126.476 124.731C126.058 124.291 125.736 123.765 125.504 123.152C125.284 122.542 125.174 121.87 125.174 121.134C125.174 120.426 125.289 119.765 125.52 119.155C125.753 118.541 126.083 118.016 126.511 117.576C126.941 117.124 127.447 116.767 128.035 116.511C128.635 116.254 129.294 116.125 130.017 116.125C130.824 116.125 131.528 116.284 132.127 116.602C132.726 116.907 133.214 117.323 133.595 117.848C133.986 118.376 134.268 118.974 134.439 119.648C134.611 120.319 134.672 121.023 134.622 121.758L127.778 121.76ZM132.014 120.108C131.892 119.449 131.673 118.944 131.354 118.604C131.048 118.261 130.577 118.09 129.941 118.09C129.526 118.09 129.176 118.164 128.895 118.313C128.625 118.445 128.404 118.615 128.234 118.826C128.075 119.031 127.96 119.251 127.888 119.485C127.826 119.718 127.788 119.925 127.778 120.108H132.014ZM117.594 115.191H113.666V112.767H124.399V115.191H120.474V125.87H117.593V115.191H117.594ZM106.035 121.76C106.071 122.603 106.285 123.214 106.678 123.594C107.068 123.973 107.632 124.163 108.366 124.163C108.893 124.163 109.343 124.034 109.722 123.778C110.103 123.506 110.335 123.227 110.423 122.932H112.715C112.349 124.071 111.784 124.883 111.026 125.373C110.269 125.862 109.351 126.106 108.275 126.106C107.528 126.106 106.855 125.99 106.256 125.757C105.657 125.513 105.149 125.171 104.734 124.731C104.318 124.292 103.993 123.765 103.761 123.152C103.541 122.542 103.431 121.87 103.431 121.134C103.431 120.426 103.546 119.765 103.779 119.155C104.01 118.541 104.341 118.016 104.77 117.576C105.198 117.124 105.706 116.767 106.293 116.511C106.892 116.254 107.551 116.125 108.275 116.125C109.082 116.125 109.785 116.284 110.384 116.602C110.985 116.907 111.474 117.323 111.853 117.848C112.244 118.376 112.526 118.974 112.697 119.648C112.868 120.319 112.929 121.023 112.879 121.758L106.035 121.76ZM110.272 120.108C110.149 119.449 109.931 118.944 109.612 118.604C109.307 118.261 108.835 118.09 108.2 118.09C107.784 118.09 107.435 118.164 107.152 118.313C106.885 118.445 106.664 118.615 106.493 118.826C106.334 119.031 106.218 119.251 106.145 119.485C106.084 119.718 106.047 119.925 106.035 120.108H110.272ZM99.2283 112.768H101.833V125.871H99.2283V112.768ZM94.5286 121.227C94.4185 121.324 94.2796 121.403 94.1082 121.464C93.9493 121.513 93.7704 121.556 93.5752 121.593C93.3925 121.63 93.1961 121.661 92.9884 121.686C92.7794 121.71 92.5717 121.74 92.364 121.776C92.1701 121.813 91.9736 121.861 91.7772 121.924C91.5932 121.985 91.4281 122.069 91.2817 122.18C91.1478 122.279 91.0352 122.408 90.9501 122.565C90.8663 122.724 90.8212 122.926 90.8212 123.17C90.8212 123.404 90.865 123.599 90.9501 123.758C91.0352 123.917 91.1516 124.046 91.2992 124.145C91.4443 124.23 91.617 124.291 91.811 124.327C92.0087 124.363 92.2089 124.382 92.4166 124.382C92.9296 124.382 93.3287 124.296 93.6102 124.126C93.8905 123.953 94.0982 123.752 94.2333 123.519C94.366 123.276 94.4473 123.031 94.4711 122.786C94.5074 122.542 94.5249 122.345 94.5249 122.198V121.227H94.5286ZM88.5115 119.301C88.549 118.689 88.7016 118.181 88.9707 117.778C89.2397 117.373 89.5825 117.05 89.9979 116.806C90.4146 116.562 90.8775 116.391 91.3931 116.292C91.9186 116.18 92.4441 116.127 92.9709 116.127C93.4476 116.127 93.9305 116.163 94.4185 116.237C94.909 116.298 95.3544 116.424 95.7598 116.621C96.1627 116.817 96.4931 117.093 96.7496 117.447C97.0061 117.788 97.1362 118.249 97.1362 118.826V123.759C97.1362 124.187 97.16 124.599 97.2088 124.988C97.2588 125.379 97.3439 125.672 97.4665 125.87H94.8252C94.7739 125.724 94.7326 125.576 94.6951 125.427C94.67 125.269 94.6538 125.11 94.64 124.952C94.2246 125.379 93.7341 125.679 93.1723 125.849C92.6105 126.021 92.0349 126.106 91.4469 126.106C90.9952 126.106 90.5735 126.051 90.1806 125.94C89.7902 125.831 89.4474 125.661 89.1546 125.427C88.8606 125.194 88.6266 124.901 88.4564 124.547C88.2975 124.193 88.2187 123.77 88.2187 123.28C88.2187 122.743 88.3088 122.303 88.4939 121.959C88.6904 121.605 88.9356 121.323 89.2272 121.115C89.5337 120.908 89.8765 120.754 90.2544 120.659C90.6461 120.548 91.0364 120.461 91.4281 120.4C91.8197 120.338 92.2051 120.289 92.583 120.253C92.9646 120.217 93.2999 120.162 93.594 120.089C93.888 120.015 94.1207 119.91 94.2922 119.776C94.4636 119.629 94.5436 119.421 94.5286 119.153C94.5286 118.872 94.4811 118.652 94.3835 118.493C94.2984 118.32 94.1758 118.194 94.0169 118.107C93.8705 118.008 93.6903 117.946 93.4851 117.923C93.2887 117.888 93.0747 117.87 92.842 117.87C92.329 117.87 91.9236 117.98 91.6295 118.199C91.3367 118.419 91.1653 118.785 91.1165 119.301H88.5115ZM84.1834 124.659C83.8406 125.172 83.4365 125.546 82.936 125.779C82.4455 125.999 81.8887 126.109 81.2643 126.109C80.5561 126.109 79.933 125.975 79.395 125.706C78.8557 125.425 78.409 125.052 78.0549 124.586C77.7121 124.109 77.4493 123.565 77.2654 122.953C77.094 122.343 77.0089 121.705 77.0089 121.045C77.0089 120.408 77.094 119.798 77.2654 119.21C77.4493 118.61 77.7121 118.085 78.0549 117.631C78.409 117.179 78.8494 116.819 79.3762 116.55C79.9017 116.267 80.5123 116.128 81.2093 116.128C81.7723 116.128 82.3041 116.25 82.8058 116.494C83.3189 116.727 83.7217 117.076 84.017 117.541L84.0546 112.77H86.6596V125.872H84.1834V124.659ZM84.1447 121.099C84.1447 120.707 84.1096 120.336 84.0346 119.978C83.9607 119.611 83.8319 119.293 83.6492 119.024C83.4765 118.743 83.2525 118.516 82.9698 118.345C82.6895 118.174 82.3341 118.089 81.905 118.089C81.477 118.089 81.1179 118.174 80.8239 118.345C80.5299 118.516 80.2896 118.743 80.1082 119.024C79.9368 119.306 79.8092 119.629 79.7228 119.997C79.649 120.351 79.6127 120.725 79.6127 121.117C79.6127 121.483 79.654 121.85 79.7403 122.216C79.8254 122.585 79.9605 122.915 80.1445 123.209C80.3384 123.49 80.5787 123.722 80.8589 123.906C81.1517 124.077 81.5021 124.163 81.905 124.163C82.3341 124.163 82.6895 124.077 82.9698 123.906C83.2638 123.734 83.4965 123.508 83.6679 123.227C83.8394 122.933 83.9607 122.603 84.0346 122.236C84.1096 121.87 84.1447 121.488 84.1447 121.099ZM75.3197 125.264C75.3197 125.643 75.2647 126.075 75.1546 126.566C75.057 127.056 74.838 127.508 74.4952 127.924C74.1536 128.352 73.6568 128.714 73.0087 129.008C72.3606 129.298 71.4922 129.447 70.4036 129.447C69.9382 129.447 69.4615 129.386 68.9722 129.263C68.4943 129.153 68.0551 128.977 67.6509 128.73C67.2593 128.486 66.929 128.168 66.66 127.777C66.4035 127.398 66.2571 126.939 66.2195 126.402H68.8071C68.9297 126.89 69.1674 127.226 69.5215 127.41C69.8769 127.607 70.2873 127.703 70.7515 127.703C71.486 127.703 72.0177 127.483 72.3481 127.044C72.6909 126.603 72.8548 126.046 72.8435 125.374V124.127C72.5257 124.629 72.1216 125 71.5961 125.246C71.0818 125.478 70.5375 125.593 69.9632 125.593C69.2538 125.593 68.6419 125.472 68.1289 125.227C67.6146 124.969 67.193 124.629 66.8614 124.202C66.5323 123.759 66.2871 123.254 66.1282 122.677C65.9818 122.089 65.908 121.472 65.908 120.825C65.908 120.213 65.9943 119.626 66.1645 119.065C66.3484 118.488 66.6112 117.988 66.954 117.561C67.2968 117.118 67.7185 116.77 68.2202 116.513C68.7332 116.257 69.3201 116.128 69.9807 116.128C70.6051 116.128 71.1494 116.243 71.6136 116.477C72.0915 116.708 72.4882 117.1 72.806 117.651L72.8435 116.384H75.3197V125.264ZM70.6239 123.629C70.9905 123.629 71.3145 123.558 71.5961 123.411C71.8763 123.262 72.1091 123.068 72.293 122.822C72.4769 122.578 72.6108 122.303 72.6959 121.996C72.7947 121.678 72.8435 121.348 72.8435 121.006C72.8435 120.616 72.806 120.247 72.7347 119.905C72.6609 119.55 72.537 119.237 72.3668 118.969C72.1954 118.699 71.9689 118.485 71.6874 118.326C71.4071 118.167 71.0518 118.089 70.6239 118.089C70.2572 118.089 69.9382 118.162 69.6704 118.311C69.4127 118.455 69.1924 118.658 69.0085 118.914C68.8383 119.158 68.7095 119.447 68.6231 119.776C68.5506 120.094 68.513 120.43 68.513 120.786C68.513 121.128 68.5443 121.471 68.6044 121.813C68.6782 122.144 68.7946 122.442 68.9535 122.713C69.1249 122.982 69.3463 123.201 69.6154 123.374C69.8831 123.545 70.2197 123.629 70.6239 123.629ZM55.3213 116.383H57.7987V117.704C58.1829 117.154 58.612 116.757 59.1388 116.512C59.6643 116.255 60.2023 116.127 60.7516 116.127C61.4498 116.127 62.0191 116.222 62.4596 116.419C62.9113 116.602 63.2654 116.865 63.5231 117.209C63.7796 117.539 63.9573 117.947 64.0549 118.438C64.1662 118.914 64.2201 119.447 64.2201 120.033V125.869H61.615V120.511C61.615 119.729 61.4924 119.147 61.2484 118.768C61.0031 118.378 60.5702 118.181 59.9446 118.181C59.2351 118.181 58.7221 118.395 58.4043 118.824C58.0853 119.237 57.9276 119.932 57.9276 120.896V125.87H55.3213V116.383ZM50.6617 116.383H53.2668V125.87H50.6617V116.383ZM53.2668 114.915H50.6617V112.768H53.2668V114.915ZM39.7072 116.383H42.1846V117.704C42.57 117.154 42.9979 116.757 43.5247 116.512C44.0502 116.255 44.5882 116.127 45.1388 116.127C45.8357 116.127 46.405 116.222 46.8455 116.419C47.2971 116.602 47.6525 116.865 47.909 117.209C48.1668 117.539 48.3432 117.947 48.442 118.438C48.5521 118.914 48.6059 119.447 48.6059 120.033V125.869H46.0009V120.511C46.0009 119.729 45.8782 119.147 45.6343 118.768C45.3903 118.378 44.9548 118.181 44.3305 118.181C43.6223 118.181 43.1093 118.395 42.7902 118.824C42.4724 119.237 42.3135 119.932 42.3135 120.896V125.87H39.7072V116.383ZM28.8277 116.383H31.3052V117.704C31.6893 117.154 32.1185 116.757 32.644 116.512C33.1695 116.255 33.7075 116.127 34.2593 116.127C34.9563 116.127 35.5243 116.222 35.9647 116.419C36.4189 116.602 36.773 116.865 37.0283 117.209C37.286 117.539 37.4637 117.947 37.5613 118.438C37.6714 118.914 37.7265 119.447 37.7265 120.033V125.869H35.1214V120.511C35.1214 119.729 34.9988 119.147 34.7535 118.768C34.5096 118.378 34.0754 118.181 33.4523 118.181C32.7416 118.181 32.2286 118.395 31.9108 118.824C31.5929 119.237 31.4328 119.932 31.4328 120.896V125.87H28.8277V116.383ZM26.847 125.87H24.3696V124.547C23.9842 125.097 23.5563 125.496 23.0295 125.739C22.5027 125.984 21.966 126.106 21.4154 126.106C20.7172 126.106 20.1429 126.014 19.6912 125.831C19.2508 125.647 18.9017 125.389 18.6452 125.062C18.3874 124.719 18.2048 124.31 18.0947 123.832C17.9958 123.342 17.9483 122.806 17.9483 122.216V116.383H20.5533V121.74C20.5533 122.524 20.6747 123.111 20.9199 123.501C21.1652 123.88 21.5994 124.071 22.2225 124.071C22.9319 124.071 23.4462 123.862 23.764 123.448C24.0818 123.018 24.242 122.321 24.242 121.354V116.382H26.847V125.87ZM8.27874 121.521C8.27874 121.961 8.35757 122.335 8.51648 122.641C8.67663 122.946 8.88434 123.197 9.14209 123.394C9.41111 123.576 9.72141 123.718 10.0768 123.815C10.4309 123.901 10.7987 123.944 11.1778 123.944C11.4343 123.944 11.7096 123.926 12.0037 123.891C12.2964 123.842 12.5717 123.755 12.8295 123.632C13.086 123.509 13.2999 123.345 13.4714 123.137C13.6415 122.916 13.7279 122.642 13.7279 122.311C13.7279 121.957 13.6115 121.668 13.3788 121.449C13.1585 121.229 12.8658 121.046 12.4991 120.9C12.1325 120.754 11.7159 120.624 11.2504 120.513C10.7862 120.403 10.3157 120.281 9.83778 120.148C9.34854 120.024 8.87183 119.878 8.40762 119.706C7.94216 119.522 7.52675 119.291 7.15889 119.008C6.79228 118.725 6.49198 118.379 6.26176 117.963C6.03904 117.535 5.93018 117.02 5.93018 116.422C5.93018 115.75 6.07032 115.168 6.35185 114.678C6.64588 114.177 7.02501 113.761 7.48921 113.43C7.95467 113.1 8.48019 112.856 9.06827 112.697C9.6551 112.538 10.2419 112.458 10.8288 112.458C11.5144 112.458 12.1688 112.538 12.7932 112.697C13.4276 112.843 13.9906 113.087 14.4811 113.43C14.9691 113.772 15.3545 114.213 15.636 114.753C15.93 115.278 16.0764 115.921 16.0764 116.68H13.2874C13.2636 116.288 13.1773 115.963 13.0309 115.706C12.8958 115.45 12.7119 115.248 12.4816 115.101C12.2476 114.955 11.9786 114.85 11.6721 114.79C11.3793 114.729 11.0552 114.698 10.6999 114.698C10.4671 114.698 10.2357 114.723 10.0042 114.772C9.77021 114.82 9.55625 114.907 9.36106 115.028C9.17713 115.152 9.02448 115.305 8.90311 115.487C8.78049 115.67 8.71918 115.903 8.71918 116.184C8.71918 116.441 8.76797 116.651 8.86557 116.81C8.96442 116.969 9.15335 117.115 9.43488 117.25C9.72767 117.384 10.1243 117.519 10.6273 117.653L12.6268 118.166C12.872 118.215 13.2073 118.305 13.6365 118.443C14.0769 118.565 14.5111 118.767 14.939 119.048C15.367 119.33 15.7336 119.708 16.0401 120.184C16.3579 120.649 16.5169 121.249 16.5169 121.984C16.5169 122.583 16.4017 123.14 16.1678 123.653C15.9363 124.167 15.5872 124.614 15.123 124.992C14.67 125.358 14.102 125.646 13.4163 125.852C12.7431 126.061 11.9599 126.165 11.0677 126.165C10.3458 126.165 9.64258 126.074 8.95816 125.89C8.285 125.719 7.68566 125.446 7.15889 125.065C6.64588 124.685 6.23548 124.205 5.93018 123.615C5.62488 123.027 5.47723 122.33 5.48975 121.523H8.27874V121.521ZM146.692 112.768H149.299V117.704C149.684 117.154 150.107 116.757 150.62 116.512C151.133 116.255 151.635 116.127 152.123 116.127C152.822 116.127 153.389 116.222 153.829 116.419C154.282 116.602 154.638 116.865 154.894 117.209C155.151 117.539 155.33 117.947 155.427 118.438C155.537 118.914 155.592 119.447 155.592 120.033V125.869H152.986V120.511C152.986 119.729 152.864 119.147 152.621 118.768C152.376 118.378 151.941 118.181 151.317 118.181C150.609 118.181 150.092 118.395 149.776 118.824C149.459 119.237 149.3 119.932 149.3 120.896V125.87H146.694L146.692 112.768Z" fill="#71717B"/>
</g>
<defs>
<clipPath id="clip0_72_224">
<rect width="155.153" height="128.654" fill="white" transform="translate(0.438477 0.793213)"/>
</clipPath>
</defs>
</svg>
