<svg width="23" height="23" viewBox="0 0 23 23" fill="none" xmlns="http://www.w3.org/2000/svg">
<path fill-rule="evenodd" clip-rule="evenodd" d="M2.81251 0C1.2592 0 0 1.2592 0 2.8125V7.18748C0 8.74075 1.25919 10 2.81251 10H7.18752C8.74087 10 10 8.74075 10 7.18748V2.8125C10 1.2592 8.74087 0 7.18752 0H2.81251ZM1.875 2.8125C1.875 2.29474 2.29473 1.875 2.81251 1.875H7.18752C7.70528 1.875 8.12502 2.29474 8.12502 2.8125V7.18748C8.12502 7.70524 7.70528 8.12498 7.18752 8.12498H2.81251C2.29473 8.12498 1.875 7.70524 1.875 7.18748V2.8125Z" fill="#E7000B"/>
<path fill-rule="evenodd" clip-rule="evenodd" d="M2.81251 13C1.2592 13 0 14.2593 0 15.8125V20.1875C0 21.7408 1.25919 23 2.81251 23H7.18752C8.74087 23 10 21.7408 10 20.1875V15.8125C10 14.2593 8.74087 13 7.18752 13H2.81251ZM1.875 15.8125C1.875 15.2947 2.29473 14.875 2.81251 14.875H7.18752C7.70528 14.875 8.12502 15.2947 8.12502 15.8125V20.1875C8.12502 20.7052 7.70528 21.125 7.18752 21.125H2.81251C2.29473 21.125 1.875 20.7052 1.875 20.1875V15.8125Z" fill="#E7000B"/>
<path fill-rule="evenodd" clip-rule="evenodd" d="M13 2.8125C13 1.2592 14.2593 0 15.8125 0H20.1875C21.7409 0 23 1.2592 23 2.8125V7.18748C23 8.74075 21.7409 10 20.1875 10H15.8125C14.2593 10 13 8.74075 13 7.18748V2.8125ZM15.8125 1.875C15.2947 1.875 14.875 2.29474 14.875 2.8125V7.18748C14.875 7.70524 15.2947 8.12498 15.8125 8.12498H20.1875C20.7052 8.12498 21.125 7.70524 21.125 7.18748V2.8125C21.125 2.29474 20.7052 1.875 20.1875 1.875H15.8125Z" fill="#E7000B"/>
<path fill-rule="evenodd" clip-rule="evenodd" d="M15.8125 13C14.2593 13 13 14.2593 13 15.8125V20.1875C13 21.7408 14.2593 23 15.8125 23H20.1875C21.7409 23 23 21.7408 23 20.1875V15.8125C23 14.2593 21.7409 13 20.1875 13H15.8125ZM14.875 15.8125C14.875 15.2947 15.2947 14.875 15.8125 14.875H20.1875C20.7052 14.875 21.125 15.2947 21.125 15.8125V20.1875C21.125 20.7052 20.7052 21.125 20.1875 21.125H15.8125C15.2947 21.125 14.875 20.7052 14.875 20.1875V15.8125Z" fill="#E7000B"/>
</svg>
