<svg width="23" height="23" viewBox="0 0 23 23" fill="none" xmlns="http://www.w3.org/2000/svg">
<path d="M18.1621 22V20.1621H12.5V22C12.5 22.5523 12.0523 23 11.5 23C10.9477 23 10.5 22.5523 10.5 22V20.1621H4.83789V22C4.83789 22.5523 4.39015 23 3.83789 23C3.28561 23 2.83789 22.5523 2.83789 22V20.1621H1C0.447715 20.1621 0 19.7144 0 19.1621C2.88615e-05 18.6098 0.447733 18.1621 1 18.1621H2.83789V12.5H1C0.447715 12.5 0 12.0523 0 11.5C0 10.9477 0.447715 10.5 1 10.5H2.83789V4.83789H1C0.447733 4.83789 2.8475e-05 4.39015 0 3.83789C0 3.28561 0.447715 2.83789 1 2.83789H2.83789V1C2.83789 0.447715 3.28561 0 3.83789 0C4.39015 2.8475e-05 4.83789 0.447733 4.83789 1V2.83789H10.5V1C10.5 0.447715 10.9477 0 11.5 0C12.0523 0 12.5 0.447715 12.5 1V2.83789H18.1621V1C18.1621 0.447733 18.6098 2.88615e-05 19.1621 0C19.7144 0 20.1621 0.447715 20.1621 1V2.83789H22L22.1025 2.84277C22.6067 2.89411 23 3.32022 23 3.83789C23 4.35555 22.6067 4.78168 22.1025 4.83301L22 4.83789H20.1621V10.5H22C22.5523 10.5 23 10.9477 23 11.5C23 12.0523 22.5523 12.5 22 12.5H20.1621V18.1621H22C22.5523 18.1621 23 18.6098 23 19.1621C23 19.7144 22.5523 20.1621 22 20.1621H20.1621V22C20.1621 22.5523 19.7144 23 19.1621 23C18.6098 23 18.1621 22.5523 18.1621 22ZM12.5 18.1621H18.1621V12.5H12.5V18.1621ZM4.83789 18.1621H10.5V12.5H4.83789V18.1621ZM12.5 10.5H18.1621V4.83789H12.5V10.5ZM4.83789 10.5H10.5V4.83789H4.83789V10.5Z" fill="#E7000B"/>
</svg>
