<svg width="16" height="21" viewBox="0 0 16 21" fill="none" xmlns="http://www.w3.org/2000/svg">
<path d="M0.8 0C0.358176 0 0 0.35258 0 0.7875V3.9375C0 4.37242 0.358176 4.725 0.8 4.725H1.55834V8.1375H0.8C0.358176 8.1375 0 8.49009 0 8.925V12.075C0 12.5099 0.358176 12.8625 0.8 12.8625H4C4.44182 12.8625 4.8 12.5099 4.8 12.075V11.2875H11.2V12.075C11.2 12.5099 11.5582 12.8625 12 12.8625H12.8V16.275H12C11.5582 16.275 11.2 16.6276 11.2 17.0625V20.2125C11.2 20.6474 11.5582 21 12 21H15.2C15.6418 21 16 20.6474 16 20.2125V17.0625C16 16.6276 15.6418 16.275 15.2 16.275H14.4V12.8625H15.2C15.6418 12.8625 16 12.5099 16 12.075V8.925C16 8.49009 15.6418 8.1375 15.2 8.1375H12C11.5582 8.1375 11.2 8.49009 11.2 8.925V9.7125H4.8V8.925C4.8 8.49009 4.44182 8.1375 4 8.1375H3.15834V4.725H4C4.44182 4.725 4.8 4.37242 4.8 3.9375V0.7875C4.8 0.35258 4.44182 0 4 0H0.8Z" fill="#E7000B"/>
</svg>
