<svg width="29" height="21" viewBox="0 0 29 21" fill="none" xmlns="http://www.w3.org/2000/svg">
<path fill-rule="evenodd" clip-rule="evenodd" d="M8.94227 3.15C8.94227 1.4103 10.403 0 12.2048 0H16.7966C18.5984 0 20.0592 1.4103 20.0592 3.15V6.3H21.267C23.0688 6.3 24.5296 7.71036 24.5296 9.45V12.6H25.7375C27.5392 12.6 29 14.0104 29 15.75V19.95C29 20.5299 28.5131 21 27.9125 21H1.08752C0.486903 21 0 20.5299 0 19.95V15.75C0 14.0104 1.46069 12.6 3.26255 12.6H4.47184V9.45C4.47184 7.71036 5.93253 6.3 7.73439 6.3H8.94227V3.15ZM11.1173 6.3H17.8841V3.15C17.8841 2.57011 17.3972 2.1 16.7966 2.1H12.2048C11.6042 2.1 11.1173 2.57011 11.1173 3.15V6.3ZM7.73439 8.4C7.13377 8.4 6.64687 8.87012 6.64687 9.45V12.6H13.4137V8.4H7.73439ZM15.5887 8.4V12.6H22.3546V9.45C22.3546 8.87012 21.8676 8.4 21.267 8.4H15.5887ZM3.26255 14.7C2.66194 14.7 2.17503 15.1701 2.17503 15.75V18.9H8.94181V14.7H3.26255ZM11.1169 14.7V18.9H17.8841V14.7H11.1169ZM20.0592 14.7V18.9H26.825V15.75C26.825 15.1701 26.3381 14.7 25.7375 14.7H20.0592Z" fill="#E7000B"/>
</svg>
